<svg width="12" height="12" viewBox="0 0 12 12" fill="none" xmlns="http://www.w3.org/2000/svg">
<g id="Group 12390">
<circle id="Ellipse 15" cx="6" cy="6" r="5.625" stroke="#C7C7C7" stroke-width="0.75"/>
<path id="i" d="M6 9C5.7973 9 5.64189 8.93819 5.53378 8.81456C5.42568 8.69093 5.37162 8.51923 5.37162 8.29945V4.51854C5.37162 4.2919 5.42568 4.12019 5.53378 4.00343C5.64189 3.87981 5.7973 3.81799 6 3.81799C6.2027 3.81799 6.35811 3.87981 6.46622 4.00343C6.58108 4.12019 6.63851 4.2919 6.63851 4.51854V8.29945C6.63851 8.51923 6.58446 8.69093 6.47635 8.81456C6.36824 8.93819 6.20946 9 6 9ZM6 2.85989C5.76351 2.85989 5.5777 2.80151 5.44257 2.68475C5.31419 2.56113 5.25 2.39286 5.25 2.17994C5.25 1.96016 5.31419 1.7919 5.44257 1.67514C5.5777 1.55838 5.76351 1.5 6 1.5C6.24324 1.5 6.42905 1.55838 6.55743 1.67514C6.68581 1.7919 6.75 1.96016 6.75 2.17994C6.75 2.39286 6.68581 2.56113 6.55743 2.68475C6.42905 2.80151 6.24324 2.85989 6 2.85989Z" fill="#C7C7C7"/>
</g>
</svg>
