<svg width="26" height="26" viewBox="0 0 26 26" fill="none" xmlns="http://www.w3.org/2000/svg">
<path fill-rule="evenodd" clip-rule="evenodd" d="M0 13.8169C0 22.2088 0.00218359 22.6415 0.0444336 22.6316C0.0902891 22.6208 11.4659 20.8432 11.489 20.8432C11.5232 20.8432 11.4834 20.0804 11.4109 19.3444C11.2941 18.1587 10.9593 17.3432 10.3504 16.7608C9.96653 16.3936 9.55117 16.1696 8.99803 16.0313C8.61872 15.9365 8.37203 15.9096 7.72332 15.8925L7.13124 15.8769L6.9467 15.4831C6.39323 14.3022 6.09763 13.3186 5.95039 12.1681C5.91718 11.9085 5.90469 11.634 5.90416 11.1519C5.90342 10.4793 5.92031 10.2799 6.02019 9.78017C6.26471 8.55698 6.88896 7.36228 7.77045 6.43062L7.96882 6.22095L6.94875 6.062C6.38772 5.97459 4.61574 5.69803 3.011 5.44737C1.40626 5.19675 0.0722871 4.99169 0.0466426 4.99169C0.00147266 4.99169 0 5.26963 0 13.8169ZM12.3956 5.29727C11.3151 5.40202 10.3286 5.75232 9.49609 6.30777C8.65255 6.87062 7.96719 7.64411 7.50255 8.58622C6.88873 9.83084 6.75655 11.1561 7.08528 12.7695C7.21777 13.4197 7.5156 14.3233 7.74742 14.7782C7.79566 14.8729 7.79693 14.8735 7.95412 14.8735C8.41542 14.8738 9.10909 14.9845 9.54837 15.1279C9.80842 15.2128 10.2456 15.4131 10.4482 15.5403C11.4029 16.1394 12.0552 17.1589 12.3134 18.4553C12.3977 18.8784 12.4555 19.4122 12.498 20.1594L12.5278 20.6823L12.6306 20.6641C12.6871 20.6542 12.9006 20.6206 13.105 20.5895L13.4767 20.533L13.4938 20.2372C13.54 19.4417 13.6187 18.7454 13.7097 18.3271C13.8345 17.7533 14.102 17.1116 14.408 16.6516C14.6812 16.241 15.1299 15.8051 15.5518 15.5403C15.7544 15.4131 16.1916 15.2128 16.4516 15.1279C16.8909 14.9845 17.5846 14.8738 18.0459 14.8735C18.2031 14.8735 18.2043 14.8729 18.2526 14.7782C18.3131 14.6594 18.4072 14.4312 18.5379 14.086C18.7619 13.4947 18.9449 12.7492 19.0337 12.0664C19.0945 11.5995 19.0952 10.6661 19.035 10.2884C18.933 9.64718 18.7562 9.09578 18.4732 8.53542C18.1638 7.923 17.8634 7.51305 17.3564 7.01124C16.4253 6.08989 15.308 5.54589 13.9141 5.33517C13.5951 5.28695 12.7258 5.26526 12.3956 5.29727ZM19.373 8.0282C19.373 8.03566 19.4003 8.09566 19.4336 8.16156C19.7074 8.70341 19.9324 9.4388 20.0495 10.1749C20.1144 10.5826 20.1145 11.6618 20.0496 12.1681C19.895 13.3759 19.6007 14.3281 18.9695 15.6638L18.8661 15.8825L18.2499 15.8969C17.4165 15.9164 17.0189 15.984 16.5122 16.1925C16.1806 16.329 15.9251 16.4973 15.6496 16.7608C15.0421 17.3418 14.7057 18.1584 14.5882 19.3371C14.5326 19.8956 14.5108 20.3605 14.5403 20.3605C14.5539 20.3605 17.1236 19.9605 20.2508 19.4715C23.3779 18.9825 25.9508 18.5824 25.9683 18.5824C25.9936 18.5823 26 17.6112 26 13.8115V9.04063L25.7271 8.99763C24.1627 8.75122 19.4224 8.01466 19.401 8.01466C19.3856 8.01466 19.373 8.02075 19.373 8.0282Z" fill="white"/>
<path d="M13.9141 4.30803C15.308 4.51875 16.5674 4.98081 17.5576 5.83C17.9131 6.13483 18.2559 6.47777 18.5605 6.84612L26 8.01466V0H0V3.95017L8.22656 5.23302L9.11523 5.37274L9.38184 5.20762C10.2143 4.65217 11.3151 4.37488 12.3956 4.27013C12.7258 4.23812 13.5951 4.25982 13.9141 4.30803Z" fill="white"/>
<path d="M0 26V23.6629L26 19.5984V26H0Z" fill="white"/>
</svg>
