<svg width="24" height="25" viewBox="0 0 24 25" fill="none" xmlns="http://www.w3.org/2000/svg">
<path fill-rule="evenodd" clip-rule="evenodd" d="M11.0264 0.363388C8.00769 0.606707 4.95438 2.14514 3.01706 4.39906C1.10914 6.61868 0.0585633 9.39985 0.0585633 12.2311C0.0585633 14.125 0.569109 16.2061 1.41512 17.7604L1.64644 18.1855L1.25345 19.6081C1.03723 20.3906 0.809677 21.2107 0.747727 21.4306C0.292624 23.0451 -0.0284561 24.2892 0.00199659 24.3195C0.0218431 24.3392 0.322916 24.2794 0.670993 24.1865C1.01915 24.0936 1.79212 23.8914 2.38872 23.7371C2.98532 23.583 3.96157 23.3292 4.55817 23.1732C6.44415 22.6803 6.28474 22.7012 6.67604 22.8956C7.89247 23.5002 9.17469 23.8806 10.6212 24.066C11.8264 24.2206 12.2411 24.2202 13.4402 24.0641C14.9871 23.8626 15.89 23.5926 17.2937 22.9122C22.7039 20.2892 25.3081 14.0293 23.3525 8.34814C22.7389 6.56598 21.4548 4.63254 20.0751 3.41411C17.5359 1.17147 14.3455 0.0958406 11.0264 0.363388ZM13.8386 2.56301C15.4301 2.88941 16.6696 3.42171 17.8963 4.30583C18.6095 4.81981 19.7542 6.02265 20.2608 6.79027C21.322 8.39867 21.8076 9.90928 21.89 11.8582C22.0135 14.7767 20.887 17.4787 18.7139 19.4764C16.1398 21.8428 12.4975 22.6721 9.13813 21.6567C8.4288 21.4423 7.4732 21.0227 6.94273 20.6928L6.63563 20.5017L6.0187 20.6563C4.90762 20.9349 3.23448 21.3795 3.09138 21.4341C2.88014 21.5148 2.90601 21.3666 3.42323 19.5321L3.89087 17.8735L3.60964 17.4131C0.394267 12.1497 2.68031 5.35483 8.43523 3.06972C9.18867 2.77059 10.4367 2.47514 11.2272 2.40885C11.8344 2.35792 13.2441 2.44115 13.8386 2.56301ZM7.53876 6.73326C7.43246 6.75469 7.15589 6.96091 6.92416 7.19159C5.70397 8.40579 5.61004 10.1139 6.66431 11.9153C7.45102 13.2595 8.74996 14.7632 9.96454 15.7356C11.1863 16.7138 12.2673 17.2778 13.8305 17.7523C14.4344 17.9355 14.6508 17.9629 15.3151 17.9396C15.9989 17.9156 16.1566 17.8811 16.6213 17.6532C17.2569 17.3415 17.8509 16.7442 17.9646 16.3026C18.1204 15.6972 18.1509 15.2003 18.0412 15.057C17.9358 14.9193 16.2633 14.0686 15.5368 13.7831C15.0515 13.5924 14.9045 13.6365 14.6112 14.0609C14.4835 14.2455 14.2017 14.5846 13.9849 14.8144C13.6132 15.2084 13.5764 15.2279 13.3338 15.1587C12.9944 15.0618 11.999 14.5547 11.5642 14.2572C10.7549 13.7034 9.77636 12.6418 9.24773 11.744C9.01576 11.3501 9.01536 11.3513 9.62208 10.5535C9.896 10.1934 10.022 9.95198 10.022 9.78726C10.022 9.49261 9.03987 7.10228 8.84012 6.91085C8.69042 6.76732 7.90275 6.65986 7.53876 6.73326Z" fill="#0060B7"/>
</svg>
