<svg xmlns="http://www.w3.org/2000/svg" width="105" height="36" viewBox="0 0 105 36" fill="none">
  <path fill-rule="evenodd" clip-rule="evenodd" d="M39.0949 0.0904247C38.7655 0.157491 38.3585 0.377304 38.1905 0.57905C37.9738 0.839102 37.9081 4.60302 37.9645 13.5502L38.0355 24.8506C38.0407 25.6876 38.3699 26.49 38.9538 27.0896C39.4546 27.6037 40.335 28.1649 40.9106 28.3365C42.8401 28.9119 46.0622 28.5848 46.9248 27.7261C47.2977 27.3552 47.2911 27.1786 46.8635 26.0637C46.3388 24.696 46.2866 24.6731 44.7429 25.1335C43.9474 25.3708 43.5066 25.3727 42.9951 25.1406C42.5783 24.9516 42.3096 24.5373 42.307 24.0796L42.2398 12.4366L42.1683 0.042794L40.9309 0.00556542C40.2504 -0.014965 39.4241 0.0230848 39.0949 0.0904247ZM9.63165 2.10268C6.4073 2.56996 2.74931 5.19758 1.44786 7.98124C0.225047 10.5968 -0.121421 12.6104 0.0353146 16.1934C0.238796 20.8454 1.11431 23.1585 3.59129 25.5884C5.77788 27.7337 8.73771 28.9092 11.9764 28.9182C14.9774 28.9267 18.658 27.6872 18.658 26.6683C18.658 25.6738 18.0272 23.6731 17.6705 23.537C17.4723 23.4612 16.9017 23.7059 16.4029 24.081C14.5273 25.4902 11.1143 25.7989 9.02726 24.7478C7.63919 24.0487 6.17385 22.2798 5.73361 20.7717C5.18009 18.8755 4.94994 15.4354 5.21694 13.0454C5.77898 8.00943 8.10527 5.38071 11.9989 5.38071C14.0458 5.38071 15.3827 5.93257 16.784 7.35657C17.4926 8.0765 18.27 8.66559 18.5117 8.66559C19.3869 8.66559 21.6827 7.30209 21.6827 6.78226C21.6827 6.13542 19.3611 3.96685 17.8429 3.19573C16.5057 2.51658 13.4766 1.81772 12.0586 1.86097C11.5293 1.87712 10.4371 1.9858 9.63165 2.10268ZM93.5407 8.40389C90.4343 9.01543 88.0442 11.1364 86.9996 14.2083C86.0515 16.9971 86.2231 21.2593 87.3895 23.8915C90.0777 29.9576 99.6564 30.6926 103.366 25.1176C104.558 23.3254 105 21.5426 105 18.5238C105 12.8902 102.386 9.25413 97.7313 8.41293C95.8948 8.08115 95.1892 8.07951 93.5407 8.40389ZM26.7697 8.56047C25.5758 8.72663 23.6279 9.23743 22.4389 9.69594C21.6079 10.0165 21.408 10.2341 21.4088 10.8169C21.4099 11.5535 22.3281 13.3192 22.7097 13.3189C22.8255 13.3189 23.5388 13.0851 24.295 12.7993C27.1533 11.7189 30.3708 11.8147 31.0063 12.9989C31.2317 13.4188 31.4061 14.6854 31.336 15.3914C31.32 15.5523 30.1778 15.8337 28.7979 16.0169C22.8156 16.8096 20.2572 18.8178 20.1959 22.7684C20.1384 26.4655 22.4801 28.6516 26.4928 28.6469C28.2697 28.645 29.754 28.2259 31.081 27.3519C31.6651 26.967 32.1804 26.7012 32.2263 26.7609C32.2722 26.8205 32.5876 27.2697 32.927 27.7589C33.2663 28.2481 33.7676 28.6486 34.0406 28.6486C34.6329 28.6486 37.0813 27.3291 37.0813 27.01C37.0813 26.8871 36.773 26.1277 36.3966 25.3224C35.738 23.9142 35.7113 23.6427 35.7031 18.2465C35.6954 13.3704 35.6272 12.4878 35.1826 11.5128C34.6378 10.319 33.6512 9.48462 32.2098 8.99873C31.1828 8.65245 27.9689 8.39349 26.7697 8.56047ZM54.7484 9.22128C53.9545 9.67459 53.3086 10.1353 53.3133 10.2451C53.318 10.3551 53.6268 10.9376 53.9994 11.5399L54.6769 12.6348L54.6783 23.9041C54.6791 30.1024 54.7547 35.3683 54.8465 35.6065C55.1336 36.3511 58.2895 35.9577 58.8689 35.105C58.98 34.9416 59.0726 33.2239 59.0751 31.2882C59.079 28.0444 59.1169 27.7844 59.5604 27.9667C61.7795 28.8788 65.1622 28.8068 67.1789 27.8041C68.7399 27.028 69.6449 26.0215 70.6034 23.995C71.2598 22.6074 71.3156 22.2001 71.3156 18.794C71.3156 14.4894 71.0032 13.1379 69.5728 11.2549C67.3953 8.38829 63.7794 7.71106 60.0669 9.47476C58.3299 10.3001 58.1537 10.3349 57.9089 9.89933C57.5658 9.28889 56.6647 8.39103 56.3982 8.39431C56.2849 8.39596 55.5422 8.76797 54.7484 9.22128ZM77.0422 8.66395C73.0853 9.49037 70.9262 13.156 72.5409 16.3068C73.3149 17.817 74.3302 18.5539 77.4855 19.8952C79.0218 20.5483 80.5823 21.3624 80.9532 21.7046C81.617 22.317 81.8444 23.5217 81.4168 24.1592C80.6581 25.2901 77.7687 25.4806 75.1749 24.5704C74.2727 24.254 73.3259 23.995 73.0708 23.995C72.4903 23.995 71.397 25.7932 71.5078 26.5662C71.6992 27.8996 78.0242 29.1041 81.0456 28.3825C84.5213 27.5522 86.5759 24.5781 85.7592 21.5584C85.2499 19.6757 84.1632 18.7387 80.7844 17.2684C77.2548 15.7322 76.4026 15.0725 76.4026 13.8757C76.4026 13.2236 76.6012 12.9168 77.2963 12.4949C78.4443 11.7983 79.8324 11.8065 81.9115 12.5229C83.0644 12.92 83.6749 13.0098 83.9061 12.8166C84.4836 12.3337 85.2788 10.6288 85.1193 10.215C84.7349 9.21799 79.3454 8.18299 77.0422 8.66395ZM44.5606 9.26782C44.1253 9.70115 44.1355 11.8593 44.5743 12.1314C44.7635 12.2486 45.5986 12.3482 46.4304 12.3529L47.9428 12.3611L48.0803 20.1626L48.2177 27.9642H50.28H52.3424L52.4152 18.794C52.4818 10.4159 52.4477 9.59411 52.019 9.2815C51.3824 8.81724 45.025 8.80547 44.5606 9.26782ZM97.9466 11.8166C99.7191 12.6627 100.597 14.8863 100.599 18.5388C100.602 23.3487 99.0537 25.6878 95.8362 25.7343C93.1524 25.7729 91.5727 24.2671 90.9722 21.0988C90.2303 17.1849 91.3797 12.9195 93.4555 11.8826C94.6335 11.294 96.7857 11.2623 97.9466 11.8166ZM65.3181 12.6436C66.5528 13.4489 66.8899 14.7407 66.8877 18.6571C66.8855 22.5395 66.6372 23.4199 65.2345 24.5184C64.3156 25.2378 62.2291 25.2846 60.3854 24.6265L59.0792 24.1606V18.8824V13.6041L60.2479 13.0096C62.5274 11.8503 63.9452 11.7479 65.3181 12.6436ZM31.3522 20.9001C31.4028 21.9077 31.3186 22.9822 31.1649 23.2874C30.7043 24.2036 28.0508 25.4053 26.8115 25.2594C24.7448 25.0161 23.8357 23.2006 24.8259 21.294C25.3981 20.1928 27.9683 19.2024 30.5273 19.0978C31.2422 19.0685 31.262 19.112 31.3522 20.9001Z" fill="url(#paint0_linear_0_520)"/>
  <ellipse cx="58.3116" cy="3.06762" rx="2.88723" ry="2.87426" fill="url(#paint1_linear_0_520)"/>
  <ellipse cx="50.1524" cy="3.06762" rx="2.88723" ry="2.87426" fill="#0F88C8"/>
  <ellipse cx="66.4683" cy="3.06762" rx="2.88723" ry="2.87426" fill="url(#paint2_linear_0_520)"/>
  <ellipse cx="74.625" cy="3.06762" rx="2.88723" ry="2.87426" fill="url(#paint3_linear_0_520)"/>
  <defs>
    <linearGradient id="paint0_linear_0_520" x1="52.5" y1="-0.0561714" x2="52.5" y2="36" gradientUnits="userSpaceOnUse">
      <stop stop-color="#108AC9"/>
      <stop offset="1" stop-color="#064A94"/>
    </linearGradient>
    <linearGradient id="paint1_linear_0_520" x1="58.3115" y1="0.193359" x2="58.3115" y2="5.94189" gradientUnits="userSpaceOnUse">
      <stop stop-color="#F7F03A"/>
      <stop offset="1" stop-color="#FFCB16"/>
    </linearGradient>
    <linearGradient id="paint2_linear_0_520" x1="66.4683" y1="0.193359" x2="66.4683" y2="5.94189" gradientUnits="userSpaceOnUse">
      <stop stop-color="#F63236"/>
      <stop offset="1" stop-color="#AA2520"/>
    </linearGradient>
    <linearGradient id="paint3_linear_0_520" x1="74.625" y1="0.193359" x2="74.625" y2="5.94189" gradientUnits="userSpaceOnUse">
      <stop stop-color="#92CF29"/>
      <stop offset="1" stop-color="#548337"/>
    </linearGradient>
  </defs>
</svg>