<svg xmlns="http://www.w3.org/2000/svg" width="98" height="468" viewBox="0 0 98 468" fill="none">
<path opacity="0.2" fill-rule="evenodd" clip-rule="evenodd" d="M97.6449 172.996C97.3822 171.522 96.5213 169.7 95.7311 168.948C94.7125 167.978 79.9705 167.684 44.9274 167.936L-1.95786 168.273C-3.54006 168.284 -5.04431 168.961 -6.10175 170.138L-8.10201 172.365C-10.1155 174.606 -12.3134 178.547 -12.9856 181.123C-15.2393 189.76 -13.9581 204.183 -10.5948 208.044C-9.142 209.713 -8.45046 209.684 -4.08361 207.77C1.27283 205.421 1.3629 205.188 -0.440453 198.278C-1.37 194.717 -1.37751 192.744 -0.46833 190.454C0.265854 188.604 2.04922 187.385 4.03964 187.372L49.2889 187.073L97.8314 186.753L97.9772 181.215C98.0576 178.168 97.9086 174.47 97.6449 172.996ZM89.7635 41.1131C87.9334 26.6803 77.6418 10.3065 66.7392 4.48089C56.4948 -0.992646 48.6081 -2.5435 34.5748 -1.84193C16.3547 -0.931104 7.29508 2.98789 -2.22237 14.0753C-10.6248 23.8629 -15.2286 37.1117 -15.264 51.6085C-15.2972 65.0419 -10.4425 81.5166 -6.45198 81.5166C-2.55688 81.5166 5.27944 78.6931 5.81229 77.0967C6.10928 76.2093 5.15078 73.6553 3.68195 71.4225C-1.83747 63.027 -3.04684 47.7498 1.0702 38.4077C3.80846 32.1945 10.7367 25.6353 16.6431 23.6647C24.0699 21.1871 37.5435 20.1569 46.9045 21.352C66.6287 23.8678 76.9246 34.2807 76.9246 51.7094C76.9246 60.8718 74.7631 66.8561 69.1858 73.1285C66.3661 76.3003 64.0588 79.7799 64.0588 80.8618C64.0588 84.7796 69.3992 95.0559 71.4352 95.0559C73.9686 95.0559 82.4622 84.6639 85.4824 77.8684C88.1424 71.8829 90.8796 58.3239 90.7102 51.9765C90.647 49.6071 90.2213 44.7182 89.7635 41.1131ZM65.0838 416.706C62.6886 402.801 54.3816 392.103 42.35 387.427C31.427 383.183 14.7336 383.951 4.42387 389.172C-19.3349 401.205 -22.2136 444.081 -0.378273 460.684C6.64108 466.022 13.624 468 25.4476 468C47.5124 468 61.7537 456.3 65.0484 435.464C66.3478 427.243 66.3543 424.085 65.0838 416.706ZM64.4705 117.826C63.8197 112.482 61.8191 103.763 60.0232 98.4407C58.7678 94.7211 57.9154 93.8262 55.6328 93.8299C52.7477 93.8349 45.8323 97.9446 45.8334 99.653C45.8334 100.171 46.749 103.364 47.8683 106.749C52.1001 119.543 51.7248 133.945 47.0867 136.79C45.4421 137.799 40.4812 138.58 37.7162 138.266C37.0857 138.194 35.9836 133.081 35.2663 126.905C32.1614 100.127 24.2961 88.6752 8.82289 88.4007C-5.65752 88.1435 -14.2197 98.6253 -14.2015 116.587C-14.194 124.541 -12.5525 131.185 -9.12914 137.125C-7.6217 139.739 -6.58064 142.046 -6.81436 142.251C-7.0481 142.457 -8.80749 143.868 -10.7234 145.387C-12.6393 146.906 -14.2079 149.15 -14.2079 150.372C-14.2079 153.023 -9.04015 163.983 -7.79002 163.983C-7.30862 163.983 -4.3345 162.603 -1.18024 160.918C4.33488 157.97 5.39845 157.851 26.5337 157.814C45.6318 157.779 49.0884 157.474 52.9074 155.484C57.583 153.046 60.8509 148.629 62.754 142.177C64.1103 137.58 65.1245 123.194 64.4705 117.826ZM61.8823 243.064C60.1069 239.511 58.3024 236.62 57.8725 236.64C57.4415 236.661 55.16 238.044 52.8013 239.711L48.5127 242.744L4.37455 242.75C-19.9021 242.754 -40.5269 243.093 -41.4597 243.504C-44.3759 244.789 -42.8353 258.915 -39.4955 261.508C-38.8555 262.006 -32.1277 262.42 -24.5466 262.431C-11.8417 262.449 -10.8231 262.619 -11.5372 264.604C-15.1096 274.537 -14.8276 289.679 -10.9003 298.706C-7.86079 305.693 -3.9185 309.744 4.0186 314.034C9.45331 316.972 11.0487 317.222 24.3894 317.222C41.2489 317.222 46.5421 315.824 53.9174 309.421C65.1449 299.674 67.7974 283.489 60.8895 266.871C57.657 259.096 57.5209 258.307 59.2266 257.211C61.6175 255.675 65.1342 251.642 65.1213 250.449C65.1149 249.942 63.6578 246.618 61.8823 243.064ZM64.0652 342.856C60.8284 325.144 46.4713 315.479 34.1309 322.707C28.2159 326.172 25.3297 330.716 20.0761 344.84C17.518 351.716 14.3294 358.702 12.9892 360.362C10.5909 363.333 5.87234 364.351 3.37531 362.437C-1.05373 359.041 -1.79993 346.108 1.76495 334.497C3.00435 330.459 4.0186 326.221 4.0186 325.079C4.0186 322.48 -3.02433 317.587 -6.05207 318.083C-11.2745 318.939 -15.9919 347.251 -13.1658 360.775C-9.91394 376.333 1.73493 385.53 13.5618 381.875C20.936 379.595 24.606 374.731 30.3645 359.606C36.3813 343.807 38.9652 339.993 43.6526 339.993C46.2065 339.993 47.4084 340.881 49.0605 343.993C51.7892 349.132 51.757 355.345 48.9512 364.651C47.3955 369.812 47.0438 372.545 47.8008 373.58C49.692 376.165 56.3694 379.724 57.9905 379.01C61.8952 377.29 65.949 353.165 64.0652 342.856ZM61.7001 197.462C60.0029 195.513 51.5501 195.559 50.4844 197.523C50.0255 198.37 49.6352 202.108 49.617 205.831L49.5848 212.601L19.0286 213.216L-11.5275 213.832V223.063V232.294L24.3894 232.621C57.2035 232.918 60.4221 232.766 61.6465 230.847C63.4648 227.998 63.5109 199.541 61.7001 197.462ZM51.7173 436.428C48.4033 444.362 39.6943 448.289 25.3886 448.299C6.54993 448.314 -2.61155 441.383 -2.79382 426.981C-2.94498 414.968 2.95289 407.897 15.3619 405.209C30.6915 401.888 47.3976 407.033 51.4589 416.324C53.7641 421.597 53.8884 431.231 51.7173 436.428ZM48.4784 290.376C45.3241 295.903 40.2647 297.412 24.9255 297.402C9.7192 297.392 6.27118 296.281 1.96865 290.002C-0.848946 285.889 -1.03228 276.549 1.54516 268.296L3.36995 262.45H24.0431H44.7162L47.0449 267.681C51.5855 277.885 51.9864 284.231 48.4784 290.376ZM16.1403 138.338C12.1937 138.565 7.98554 138.188 6.7901 137.5C3.20162 135.438 -1.5051 123.561 -0.933647 118.013C0.0194931 108.762 7.12997 104.693 14.5975 109.126C18.9107 111.687 22.7897 123.192 23.1993 134.646C23.314 137.846 23.1435 137.935 16.1403 138.338Z" fill="url(#paint0_linear_218_4788)"/>
<defs>
<linearGradient id="paint0_linear_218_4788" x1="98.219" y1="233" x2="-43.001" y2="233" gradientUnits="userSpaceOnUse">
<stop stop-color="#2A9EDA"/>
<stop offset="1" stop-color="#064A94"/>
</linearGradient>
</defs>
</svg>
