<svg width="50" height="50" viewBox="0 0 50 50" fill="none" xmlns="http://www.w3.org/2000/svg">
<circle cx="25" cy="25" r="25" fill="#1F85C5"/>
<path d="M33.4516 24.7C33.2148 24.686 32.982 24.7661 32.8039 24.9229C32.6258 25.0796 32.5168 25.3003 32.5006 25.537C32.3598 27.4298 31.5085 29.1994 30.1175 30.4908C28.7265 31.7822 26.8987 32.5 25.0006 32.5C23.9754 32.4985 22.9614 32.2868 22.0213 31.8781C21.0811 31.4693 20.2347 30.8722 19.5344 30.1235C18.8341 29.3748 18.2947 28.4905 17.9495 27.5252C17.6044 26.5599 17.4608 25.534 17.5276 24.511C17.6262 23.0118 18.1728 21.5767 19.0965 20.3918C20.0203 19.2068 21.2787 18.3267 22.7086 17.8654C24.1385 17.404 25.674 17.3828 27.1161 17.8044C28.5582 18.226 29.8404 19.0711 30.7966 20.23L30.9796 20.452L24.8536 25.969L22.6486 23.764C22.478 23.605 22.2523 23.5185 22.0192 23.5226C21.786 23.5267 21.5635 23.6212 21.3987 23.7861C21.2338 23.951 21.1393 24.1734 21.1352 24.4066C21.1311 24.6398 21.2176 24.8654 21.3766 25.036L23.4586 27.118C23.827 27.4871 24.3257 27.6965 24.8472 27.701C25.3686 27.7055 25.8709 27.5047 26.2456 27.142L32.3206 21.664C32.478 21.5066 32.6026 21.3194 32.6871 21.1134C32.7715 20.9074 32.8142 20.6867 32.8126 20.464C32.8133 20.1028 32.6987 19.7507 32.4856 19.459C31.621 18.2884 30.4928 17.3381 29.1923 16.685C27.8919 16.0319 26.4558 15.6944 25.0006 15.7C24.7526 15.7 24.5036 15.71 24.2536 15.73C22.0307 15.9167 19.9485 16.8941 18.3847 18.4849C16.8209 20.0756 15.8792 22.1743 15.7306 24.4C15.6434 25.6712 15.8205 26.9467 16.2506 28.1461C16.6807 29.3455 17.3545 30.4429 18.2296 31.369C19.4664 32.6919 21.0625 33.6249 22.8221 34.0535C24.5816 34.4821 26.428 34.3876 28.1347 33.7817C29.8413 33.1757 31.3339 32.0847 32.4292 30.6425C33.5245 29.2003 34.1749 27.4697 34.3006 25.663C34.3091 25.5438 34.2939 25.4241 34.2556 25.3109C34.2174 25.1976 34.157 25.0932 34.078 25.0035C33.999 24.9139 33.9029 24.8409 33.7953 24.7888C33.6878 24.7367 33.5709 24.7065 33.4516 24.7Z" fill="white"/>
</svg>
