<svg width="16" height="16" viewBox="0 0 16 16" fill="none" xmlns="http://www.w3.org/2000/svg">
<g id="Vector">
<path fill-rule="evenodd" clip-rule="evenodd" d="M0.28707 0.28687C0.668711 -0.0947762 1.28747 -0.0947762 1.66912 0.28687L15.7138 14.3317C16.0954 14.7133 16.0954 15.3321 15.7138 15.7138C15.3321 16.0954 14.7134 16.0954 14.3317 15.7138L0.28707 1.66893C-0.0945719 1.28729 -0.0945719 0.668516 0.28707 0.28687Z" fill="black"/>
<path fill-rule="evenodd" clip-rule="evenodd" d="M0.286231 15.7131C-0.0954103 15.3315 -0.0954103 14.7127 0.286231 14.3311L14.3309 0.286235C14.7125 -0.0954114 15.3313 -0.0954117 15.7129 0.286234C16.0946 0.667881 16.0946 1.28665 15.7129 1.6683L1.66828 15.7131C1.28664 16.0948 0.667872 16.0948 0.286231 15.7131Z" fill="black"/>
</g>
</svg>
