<svg width="170" height="229" viewBox="0 0 170 229" fill="none" xmlns="http://www.w3.org/2000/svg">
<g filter="url(#filter0_dddd_149_3197)">
<rect x="35" y="7" width="100" height="100" rx="30" fill="url(#paint0_linear_149_3197)"/>
<rect x="35.5" y="7.5" width="99" height="99" rx="29.5" stroke="url(#paint1_linear_149_3197)"/>
</g>
<path d="M93.5713 57V59.8571C93.5713 63.0131 96.1298 65.5713 99.2858 65.5713C101.313 65.5713 103.094 64.5158 104.108 62.924C104.673 62.038 105 60.9858 105 59.8571V57C105 45.9543 96.0458 37 85 37C73.9543 37 65 45.9543 65 57C65 68.0458 73.9543 77 85 77C89.2493 77 93.1891 75.6749 96.4287 73.4151" stroke="#0362B8" stroke-width="4" stroke-linecap="round" stroke-linejoin="round"/>
<path d="M76.4285 56.9997C76.4285 61.7335 80.266 65.5711 84.9999 65.5711C89.7337 65.5711 93.5712 61.7335 93.5712 56.9997C93.5712 52.2658 89.7337 48.4282 84.9999 48.4282C80.266 48.4282 76.4285 52.2658 76.4285 56.9997Z" stroke="#0362B8" stroke-width="4" stroke-linecap="round" stroke-linejoin="round"/>
<defs>
<filter id="filter0_dddd_149_3197" x="0" y="0" width="170" height="229" filterUnits="userSpaceOnUse" color-interpolation-filters="sRGB">
<feFlood flood-opacity="0" result="BackgroundImageFix"/>
<feColorMatrix in="SourceAlpha" type="matrix" values="0 0 0 0 0 0 0 0 0 0 0 0 0 0 0 0 0 0 127 0" result="hardAlpha"/>
<feOffset dy="5"/>
<feGaussianBlur stdDeviation="6"/>
<feColorMatrix type="matrix" values="0 0 0 0 0 0 0 0 0 0 0 0 0 0 0 0 0 0 0.05 0"/>
<feBlend mode="normal" in2="BackgroundImageFix" result="effect1_dropShadow_149_3197"/>
<feColorMatrix in="SourceAlpha" type="matrix" values="0 0 0 0 0 0 0 0 0 0 0 0 0 0 0 0 0 0 127 0" result="hardAlpha"/>
<feOffset dy="22"/>
<feGaussianBlur stdDeviation="11"/>
<feColorMatrix type="matrix" values="0 0 0 0 0 0 0 0 0 0 0 0 0 0 0 0 0 0 0.04 0"/>
<feBlend mode="normal" in2="effect1_dropShadow_149_3197" result="effect2_dropShadow_149_3197"/>
<feColorMatrix in="SourceAlpha" type="matrix" values="0 0 0 0 0 0 0 0 0 0 0 0 0 0 0 0 0 0 127 0" result="hardAlpha"/>
<feOffset dy="49"/>
<feGaussianBlur stdDeviation="15"/>
<feColorMatrix type="matrix" values="0 0 0 0 0 0 0 0 0 0 0 0 0 0 0 0 0 0 0.03 0"/>
<feBlend mode="normal" in2="effect2_dropShadow_149_3197" result="effect3_dropShadow_149_3197"/>
<feColorMatrix in="SourceAlpha" type="matrix" values="0 0 0 0 0 0 0 0 0 0 0 0 0 0 0 0 0 0 127 0" result="hardAlpha"/>
<feOffset dy="87"/>
<feGaussianBlur stdDeviation="17.5"/>
<feColorMatrix type="matrix" values="0 0 0 0 0 0 0 0 0 0 0 0 0 0 0 0 0 0 0.01 0"/>
<feBlend mode="normal" in2="effect3_dropShadow_149_3197" result="effect4_dropShadow_149_3197"/>
<feBlend mode="normal" in="SourceGraphic" in2="effect4_dropShadow_149_3197" result="shape"/>
</filter>
<linearGradient id="paint0_linear_149_3197" x1="85" y1="7" x2="85" y2="107" gradientUnits="userSpaceOnUse">
<stop stop-color="white"/>
<stop offset="1" stop-color="#E6E6E6"/>
</linearGradient>
<linearGradient id="paint1_linear_149_3197" x1="85" y1="7" x2="85" y2="107" gradientUnits="userSpaceOnUse">
<stop stop-color="#F9F9F9"/>
<stop offset="1" stop-color="#F4F4F4"/>
</linearGradient>
</defs>
</svg>
