<svg width="14" height="25" viewBox="0 0 14 25" fill="none" xmlns="http://www.w3.org/2000/svg">
<path fill-rule="evenodd" clip-rule="evenodd" d="M8.51747 0.157714C6.96359 0.576152 5.86623 1.44355 5.22116 2.76347C4.67753 3.87578 4.63967 4.11769 4.60391 6.7044L4.57222 8.99779H2.69041H0.808594V11.2334V13.4689H2.69727H4.58594V19.0579V24.6468H6.86006H9.13418V19.0579V13.4689H11.0194H12.9045L12.9466 13.2184C12.9697 13.0806 13.0222 12.6903 13.0632 12.3512C13.1319 11.7818 13.1746 11.4546 13.3742 9.9614C13.4139 9.66461 13.4475 9.32634 13.4488 9.20979L13.4512 8.99779H11.2864H9.12177L9.14736 7.20548C9.17072 5.57081 9.18737 5.38194 9.33716 5.05794C9.5244 4.65268 9.88094 4.3515 10.3291 4.22006C10.4987 4.17034 11.3052 4.11013 12.1214 4.08624L13.6053 4.04276V2.09642V0.150082L13.3548 0.0992804C13.217 0.0713743 12.2197 0.0333694 11.1385 0.0148681C9.27456 -0.0169695 9.13881 -0.00956897 8.51747 0.157714Z" fill="#0060B7"/>
</svg>
