<svg width="50" height="50" viewBox="0 0 50 50" fill="none" xmlns="http://www.w3.org/2000/svg">
<circle cx="25" cy="25" r="25" fill="#1F85C5"/>
<g clip-path="url(#clip0_149_3690)">
<path fill-rule="evenodd" clip-rule="evenodd" d="M17.0102 28.7485C16.1665 29.629 16.1785 31.0278 17.0448 31.894L18.106 32.9552C18.9843 33.8335 20.4092 33.8335 21.2875 32.9552L21.2868 32.956L21.2882 32.9545C21.4075 32.8353 21.5868 32.7992 21.7428 32.8638C21.8988 32.929 22 33.0805 22 33.2492L22.0015 33.2965C22.0008 33.2815 22 33.2658 22 33.25C22 34.4928 23.0072 35.5 24.25 35.5H25.75C26.9928 35.5 28 34.4928 28 33.25V33.2492C28 33.0805 28.1012 32.929 28.2572 32.8638C28.4132 32.7992 28.5925 32.8353 28.7118 32.9545L28.7132 32.956L28.7125 32.9552C29.5908 33.8335 31.0157 33.8335 31.894 32.9552L32.9552 31.894C33.8335 31.0158 33.8335 29.5907 32.9552 28.7125L32.9545 28.7118C32.8352 28.5925 32.7992 28.4133 32.8637 28.2573C32.929 28.1013 33.0805 28 33.2492 28H33.25C34.4928 28 35.5 26.9928 35.5 25.75V24.25C35.5 23.011 34.4988 22.006 33.2613 22H33.2635C33.2755 22 33.2867 22.0007 33.298 22.0015L33.2635 22C33.259 22 33.2545 22 33.2492 22C33.0805 22 32.929 21.8987 32.8637 21.7427C32.8015 21.592 32.833 21.4187 32.9433 21.2995L32.9118 21.331L32.9552 21.2875C33.8335 20.4093 33.8335 18.9842 32.9552 18.106L31.894 17.0448C31.0157 16.1665 29.5908 16.1665 28.7125 17.0448C28.7125 17.0448 28.0645 17.6987 28.7088 17.0485C28.5843 17.1662 28.4095 17.1985 28.2572 17.1362C28.1065 17.0732 28.0068 16.9285 28 16.7665V16.7882V16.75C28 15.5073 26.9928 14.5 25.75 14.5H24.25C23.0072 14.5 22 15.5073 22 16.75C22 16.75 22 17.455 22 16.7508L21.9992 16.7702C21.9917 16.9307 21.8928 17.074 21.7428 17.1362C21.5868 17.2007 21.4075 17.1647 21.2882 17.0455C21.2867 17.044 21.286 17.0432 21.2845 17.0425C20.4055 16.1665 18.9835 16.1673 18.106 17.0448L17.0448 18.106C16.1665 18.9842 16.1665 20.4093 17.0448 21.2875C17.0448 21.2875 17.3148 21.5575 17.0455 21.2882L17.059 21.3025C17.167 21.421 17.1978 21.5927 17.1363 21.7427C17.071 21.8987 16.9195 22 16.7508 22C16.7478 22 16.744 22 16.741 22C15.5028 22.0045 14.5 23.0103 14.5 24.25V25.75C14.5 26.9928 15.5073 28 16.75 28H16.7508C16.9195 28 17.071 28.1013 17.1363 28.2573C17.1993 28.411 17.1663 28.5865 17.0515 28.7057C17.6193 28.1582 17.014 28.7485 17.0102 28.7485ZM29.698 18.1765C29.7123 18.163 29.7288 18.148 29.7468 18.1308L29.734 18.1435C29.722 18.1548 29.71 18.1652 29.698 18.1765C29.5068 18.355 29.6418 18.2365 29.773 18.106C30.0655 17.8127 30.541 17.8127 30.8335 18.106L31.894 19.1665C32.1872 19.459 32.1872 19.9345 31.894 20.227C31.3457 20.7753 31.1815 21.6002 31.4785 22.3165C31.7747 23.0327 32.4737 23.5 33.2492 23.5H33.25C33.664 23.5 34 23.836 34 24.25V25.75C34 26.164 33.664 26.5 33.25 26.5H33.2492C32.4737 26.5 31.7747 26.9673 31.4785 27.6835C31.1815 28.3998 31.3457 29.224 31.894 29.7723L31.9007 29.779C32.1872 30.0662 32.1872 30.541 31.894 30.8335L30.8335 31.894C30.5463 32.182 30.0828 32.1872 29.7888 31.9097L29.7723 31.894C29.224 31.3458 28.3998 31.1815 27.6835 31.4785C26.9673 31.7747 26.5 32.4737 26.5 33.2492V33.2583C26.5 33.664 26.164 34 25.75 34H24.25C23.836 34 23.5 33.664 23.5 33.25C23.5 33.265 23.4992 33.2808 23.4985 33.2958L23.5 33.2492C23.5 32.4737 23.0327 31.7747 22.3165 31.4785C21.6002 31.1815 20.776 31.3458 20.2277 31.894C20.8787 31.2423 20.0125 32.1085 20.227 31.894C19.9345 32.1873 19.459 32.1873 19.1665 31.894L18.106 30.8335C17.8128 30.541 17.8128 30.0655 18.106 29.773C18.6543 29.2247 18.8185 28.3998 18.5215 27.6835C18.2252 26.9673 17.5263 26.5 16.7508 26.5H16.7448C16.336 26.5 16 26.164 16 25.75V24.25C16 23.836 16.336 23.5 16.75 23.5H16.7508C17.5263 23.5 18.2252 23.0327 18.5215 22.3165C18.8185 21.6002 18.6543 20.776 18.106 20.2277C17.8128 19.9352 17.8128 19.459 18.106 19.1665L19.1665 18.106C19.459 17.8127 19.9345 17.8127 20.227 18.106L20.3193 18.1915C20.8653 18.6707 21.6392 18.802 22.3165 18.5215C23.0327 18.2252 23.5 17.5263 23.5 16.7508V16.7417C23.5 16.336 23.836 16 24.25 16H25.75C26.164 16 26.5 16.336 26.5 16.75V16.7523V16.7508C26.5 17.5263 26.9673 18.2252 27.6835 18.5215C28.3683 18.805 29.152 18.6677 29.698 18.1765ZM25 21.25C22.93 21.25 21.25 22.93 21.25 25C21.25 27.07 22.93 28.75 25 28.75C27.07 28.75 28.75 27.07 28.75 25C28.75 22.93 27.07 21.25 25 21.25ZM17.0102 28.7485C17.0095 28.7485 17.02 28.738 17.0448 28.7125C17.0335 28.7245 17.0215 28.7365 17.0102 28.7485ZM25 22.75C26.242 22.75 27.25 23.758 27.25 25C27.25 26.242 26.242 27.25 25 27.25C23.758 27.25 22.75 26.242 22.75 25C22.75 23.758 23.758 22.75 25 22.75ZM20.3087 18.1825L20.3193 18.1915L20.338 18.2088C20.3447 18.2155 20.3523 18.2222 20.359 18.229C20.3605 18.2305 20.3635 18.2327 20.3627 18.232C20.3612 18.2312 20.3598 18.2298 20.359 18.229L20.3087 18.1825C20.29 18.1653 20.2712 18.1488 20.2532 18.1308L20.3087 18.1825Z" fill="white"/>
</g>
<defs>
<clipPath id="clip0_149_3690">
<rect width="24" height="24" fill="white" transform="translate(13 13)"/>
</clipPath>
</defs>
</svg>
