<svg width="14" height="20" viewBox="0 0 14 20" fill="none" xmlns="http://www.w3.org/2000/svg">
<path d="M7.66146 19.414C7.44213 20.1914 6.5648 20.1992 6.32981 19.414L6.05564 18.6286L5.85981 18.0397L5.50731 17.2937C4.91982 16.2337 4.09733 15.1344 3.86233 14.8203C3.58816 14.5062 1.66902 12.1505 0.885692 10.7371C-0.720128 7.59616 0.219868 4.96565 0.885692 3.55223C1.59068 2.17808 2.60901 1.47138 3.6665 0.80411C6.09481 -0.609477 9.22811 0.136474 10.2856 0.80411C11.6173 1.58918 12.3614 2.27641 13.1839 3.78798C14.5939 6.37923 14.0064 9.20605 12.7139 11.3262L11.9306 12.504L9.69811 15.3701C9.42394 15.6449 8.6145 17.0191 8.24895 17.6865L7.97479 18.4325L7.66146 19.414Z" fill="#1F85C5"/>
<path d="M9.73727 6.92872C9.73727 8.42488 8.52733 9.63776 7.0348 9.63776C5.54226 9.63776 4.33232 8.42488 4.33232 6.92872C4.33232 5.43256 5.54226 4.21968 7.0348 4.21968C8.52733 4.21968 9.73727 5.43256 9.73727 6.92872Z" fill="white"/>
</svg>
