<svg width="50" height="50" viewBox="0 0 50 50" fill="none" xmlns="http://www.w3.org/2000/svg">
<circle cx="25" cy="25" r="25" fill="#1F85C5"/>
<path d="M24.9994 21.3882C25.6039 21.3882 26.0939 21.863 26.0939 22.4487V23.5091H27.1885C27.793 23.5091 28.283 23.984 28.283 24.5696C28.283 25.1553 27.793 25.6301 27.1885 25.6301H26.0939V26.6906C26.0939 27.2763 25.6039 27.751 24.9994 27.751C24.3949 27.751 23.905 27.2763 23.905 26.6906V25.6301H22.8104C22.2059 25.6301 21.7158 25.1553 21.7158 24.5696C21.7158 23.984 22.2059 23.5091 22.8104 23.5091H23.905V22.4487C23.905 21.863 24.3949 21.3882 24.9994 21.3882Z" fill="white"/>
<path fill-rule="evenodd" clip-rule="evenodd" d="M24.9981 17.1966C27.4897 15.7602 30.711 16.1233 32.8353 18.2844C35.386 20.8794 35.3892 25.0861 32.8391 27.6803C32.8155 27.7044 32.7917 27.7282 32.7678 27.7518C32.7546 27.7659 32.7413 27.7798 32.7277 27.7936L26.5152 34.1139C25.6813 34.962 24.3295 34.962 23.4957 34.1139L17.2754 27.7858C17.262 27.7722 17.2488 27.7583 17.2357 27.7443C17.2119 27.7208 17.1883 27.6971 17.1647 27.6732C14.614 25.0783 14.6108 20.8716 17.1609 18.2773C19.2846 16.1168 22.5062 15.7582 24.9981 17.1966ZM31.3256 19.8203C29.7717 18.2395 27.345 18.0874 25.6277 19.3642L24.9976 19.8326L24.3677 19.364C22.6476 18.0843 20.2214 18.2355 18.6706 19.8132C16.9558 21.5577 16.9561 24.3891 18.6744 26.1373C18.6952 26.1584 18.7161 26.1792 18.7371 26.1998L18.7616 26.2239L18.7846 26.2493L25.0054 32.578L31.218 26.2577L31.2417 26.2314L31.2664 26.2072C31.2876 26.1866 31.3086 26.1656 31.3294 26.1445C33.0443 24.3999 33.044 21.5685 31.3256 19.8203Z" fill="white"/>
</svg>
