<svg width="26" height="25" viewBox="0 0 26 25" fill="none" xmlns="http://www.w3.org/2000/svg">
<path fill-rule="evenodd" clip-rule="evenodd" d="M6.9989 0.117816C3.6292 0.543958 1.46737 2.50219 0.879613 5.66067C0.682642 6.71932 0.605225 8.61 0.605225 12.3625C0.605225 17.4038 0.716228 18.8708 1.19914 20.2109C1.92825 22.2345 3.47945 23.6575 5.61748 24.2639C6.80162 24.5999 7.64574 24.6442 12.9141 24.6467C17.8308 24.6491 18.8149 24.6106 19.8944 24.3735C22.4197 23.8189 24.2446 22.1144 24.9187 19.6805C25.2293 18.5594 25.2555 17.9839 25.2555 12.2814C25.2555 8.87853 25.2249 6.55663 25.1756 6.21468C24.802 3.62671 23.5624 1.80444 21.5195 0.839916C20.6796 0.443431 19.9254 0.242377 18.7848 0.111115C17.4652 -0.0407158 8.211 -0.0354778 6.9989 0.117816ZM19.5166 2.52869C21.3066 3.01438 22.2725 3.96927 22.7624 5.7377C22.9613 6.45587 23.0251 8.0378 23.0267 12.2854C23.0285 17.213 22.967 18.3372 22.6425 19.3027C22.1504 20.7675 21.1151 21.7166 19.5817 22.1087C18.7885 22.3117 16.6212 22.4105 12.9689 22.4105C9.8115 22.4103 7.21721 22.3164 6.65225 22.1817C4.74493 21.7268 3.69537 20.746 3.22378 18.9776C2.96064 17.9911 2.89647 16.2285 2.9423 11.2455C2.98436 6.66255 2.99484 6.49115 3.2985 5.39236C3.46004 4.80807 3.76254 4.30036 4.25493 3.78717C5.09743 2.909 6.08452 2.49364 7.65367 2.35706C7.82314 2.34235 10.423 2.33727 13.4311 2.3459C18.7777 2.36115 18.9142 2.36523 19.5166 2.52869ZM19.0143 4.3381C18.6886 4.48916 18.5071 4.64569 18.2947 4.9589C18.132 5.19886 18.0915 5.34892 18.0915 5.71297C18.0915 6.58968 18.6147 7.16418 19.4658 7.22219C20.8642 7.31763 21.5999 5.59727 20.5692 4.64199C20.1594 4.26223 19.469 4.12726 19.0143 4.3381ZM11.9959 6.04883C9.98728 6.36181 8.12488 7.73507 7.24663 9.55079C6.74631 10.5852 6.53401 11.8953 6.67552 13.075C7.03217 16.0498 9.26449 18.2547 12.3141 18.6444C14.3502 18.9047 16.6198 17.9621 17.9083 16.3214C18.4058 15.6878 18.5811 15.3928 18.8555 14.7274C19.6405 12.8237 19.4185 10.5452 18.2791 8.81221C17.8661 8.18417 16.9112 7.25955 16.3153 6.91098C15.5938 6.48884 14.7371 6.18017 13.9182 6.04737C13.0753 5.91071 12.8814 5.91079 11.9959 6.04883ZM14.27 8.46942C16.1285 9.10886 17.3226 11.0283 17.011 12.8753C16.7379 14.4944 15.7568 15.6737 14.2546 16.1887C13.5794 16.4201 12.4091 16.4361 11.7749 16.2226C10.4284 15.7693 9.43196 14.7341 9.04888 13.3905C8.8895 12.8316 8.8895 11.8163 9.04888 11.2574C9.48727 9.71988 10.8151 8.52727 12.3526 8.29016C12.7969 8.2216 13.8307 8.31828 14.27 8.46942Z" fill="#0060B7"/>
</svg>
