<svg xmlns="http://www.w3.org/2000/svg" width="26" height="25" viewBox="0 0 26 25" fill="none">
  <path fill-rule="evenodd" clip-rule="evenodd" d="M6.99914 0.117816C3.62944 0.543958 1.46761 2.50219 0.879857 5.66067C0.682886 6.71932 0.605469 8.61 0.605469 12.3625C0.605469 17.4038 0.716472 18.8708 1.19939 20.2109C1.9285 22.2345 3.47969 23.6575 5.61772 24.2639C6.80186 24.5999 7.64598 24.6442 12.9144 24.6467C17.831 24.6491 18.8152 24.6106 19.8946 24.3735C22.42 23.8189 24.2448 22.1144 24.919 19.6805C25.2296 18.5594 25.2558 17.9839 25.2558 12.2814C25.2558 8.87853 25.2252 6.55663 25.1758 6.21468C24.8022 3.62671 23.5627 1.80444 21.5197 0.839916C20.6798 0.443431 19.9257 0.242377 18.7851 0.111115C17.4654 -0.0407158 8.21124 -0.0354778 6.99914 0.117816ZM19.5169 2.52869C21.3069 3.01438 22.2728 3.96927 22.7626 5.7377C22.9615 6.45587 23.0254 8.0378 23.0269 12.2854C23.0288 17.213 22.9672 18.3372 22.6428 19.3027C22.1506 20.7675 21.1154 21.7166 19.582 22.1087C18.7888 22.3117 16.6215 22.4105 12.9691 22.4105C9.81174 22.4103 7.21745 22.3164 6.6525 22.1817C4.74518 21.7268 3.69561 20.746 3.22402 18.9776C2.96088 17.9911 2.89671 16.2285 2.94255 11.2455C2.98461 6.66255 2.99508 6.49115 3.29874 5.39236C3.46028 4.80807 3.76279 4.30036 4.25518 3.78717C5.09768 2.909 6.08477 2.49364 7.65391 2.35706C7.82338 2.34235 10.4232 2.33727 13.4313 2.3459C18.778 2.36115 18.9144 2.36523 19.5169 2.52869ZM19.0145 4.3381C18.6889 4.48916 18.5074 4.64569 18.295 4.9589C18.1322 5.19886 18.0918 5.34892 18.0918 5.71297C18.0918 6.58968 18.6149 7.16418 19.466 7.22219C20.8645 7.31763 21.6001 5.59727 20.5694 4.64199C20.1596 4.26223 19.4693 4.12726 19.0145 4.3381ZM11.9961 6.04883C9.98753 6.36181 8.12512 7.73507 7.24688 9.55079C6.74655 10.5852 6.53425 11.8953 6.67576 13.075C7.03242 16.0498 9.26473 18.2547 12.3144 18.6444C14.3504 18.9047 16.6201 17.9621 17.9085 16.3214C18.4061 15.6878 18.5813 15.3928 18.8557 14.7274C19.6407 12.8237 19.4187 10.5452 18.2793 8.81221C17.8664 8.18417 16.9114 7.25955 16.3156 6.91098C15.594 6.48884 14.7373 6.18017 13.9185 6.04737C13.0756 5.91071 12.8816 5.91079 11.9961 6.04883ZM14.2703 8.46942C16.1288 9.10886 17.3228 11.0283 17.0112 12.8753C16.7382 14.4944 15.7571 15.6737 14.2548 16.1887C13.5797 16.4201 12.4093 16.4361 11.7751 16.2226C10.4287 15.7693 9.4322 14.7341 9.04912 13.3905C8.88974 12.8316 8.88974 11.8163 9.04912 11.2574C9.48751 9.71988 10.8153 8.52727 12.3529 8.29016C12.7971 8.2216 13.831 8.31828 14.2703 8.46942Z" fill="#0060B7"/>
</svg>
