<svg width="25" height="25" viewBox="0 0 25 25" fill="none" xmlns="http://www.w3.org/2000/svg">
<path d="M6.25071 0.349825C7.68196 1.39262 8.79641 2.81599 9.74808 4.17801L10.3015 4.98421L10.8237 5.7541C11.0849 6.13558 11.1966 6.5998 11.1375 7.05829C11.0783 7.51678 10.8526 7.93751 10.5032 8.2403L8.06012 10.0542C7.9421 10.1395 7.85901 10.2646 7.82631 10.4064C7.79361 10.5482 7.81351 10.6971 7.88231 10.8254C8.43578 11.8306 9.42001 13.3279 10.547 14.4545C11.6752 15.5812 13.2429 16.6303 14.3186 17.2462C14.4534 17.3219 14.6122 17.343 14.7622 17.3053C14.9122 17.2676 15.042 17.1739 15.125 17.0434L16.7153 14.6235C17.0076 14.2353 17.439 13.9752 17.9189 13.8977C18.3988 13.8202 18.89 13.9314 19.2898 14.2079L20.12 14.7825C21.6715 15.8591 23.3381 17.0822 24.6129 18.7134C24.815 18.9735 24.9436 19.2831 24.9852 19.6099C25.0269 19.9367 24.98 20.2686 24.8495 20.5711C23.8014 23.016 21.1493 25.0978 18.3907 24.9964L18.0151 24.9752L17.7233 24.9501L17.4002 24.9126L17.0484 24.865L16.6664 24.8024C16.5996 24.7904 16.5328 24.7778 16.4661 24.7649L16.0454 24.6747C15.9718 24.6586 15.8983 24.6419 15.825 24.6246L15.3667 24.507L14.8846 24.3693L14.3812 24.2065C12.0696 23.4229 9.13576 21.8831 6.12549 18.8736C3.11647 15.8654 1.57627 12.9323 0.792401 10.6213L0.629616 10.1181L0.491875 9.63612L0.374169 9.17794L0.276498 8.7448C0.248287 8.60914 0.221988 8.47309 0.19761 8.33669L0.135 7.95487L0.0849126 7.6031L0.0485991 7.28012L0.0235551 6.98844L0.00352014 6.61288C-0.0979074 3.8638 2.00703 1.19358 4.44129 0.150779C4.73427 0.0242999 5.05512 -0.0238547 5.37233 0.0110409C5.68955 0.0459365 5.99224 0.162683 6.25071 0.349825ZM16.4373 4.85026L16.5825 4.86654C17.494 5.02727 18.3312 5.47236 18.9741 6.13802C19.617 6.80368 20.0326 7.65573 20.1613 8.57204C20.2072 8.88899 20.1299 9.21146 19.9452 9.47313C19.7605 9.7348 19.4825 9.91576 19.1685 9.97879C18.8544 10.0418 18.5281 9.9821 18.2567 9.81194C17.9853 9.64179 17.7895 9.37413 17.7095 9.06402L17.6807 8.92006C17.6303 8.5609 17.477 8.22401 17.2392 7.9501C17.0015 7.67618 16.6894 7.47697 16.3409 7.37651L16.1468 7.3327C15.8324 7.27698 15.5511 7.10328 15.3605 6.84711C15.17 6.59094 15.0845 6.27167 15.1216 5.95458C15.1587 5.6375 15.3156 5.34657 15.5602 5.1413C15.8047 4.93602 16.1185 4.83191 16.4373 4.85026ZM16.4473 1.04461C18.4399 1.04461 20.3509 1.83596 21.7599 3.24458C23.1689 4.65319 23.9605 6.56368 23.9605 8.55577C23.9601 8.87484 23.8379 9.18174 23.6188 9.41375C23.3997 9.64577 23.1003 9.78539 22.7817 9.80409C22.463 9.82279 22.1493 9.71915 21.9046 9.51436C21.6598 9.30957 21.5025 9.01907 21.4648 8.70223L21.4561 8.55577C21.4565 7.2844 20.973 6.06051 20.1037 5.13259C19.2344 4.20467 18.0444 3.64227 16.7754 3.55959L16.4473 3.54833C16.1152 3.54833 15.7967 3.41644 15.5619 3.18167C15.327 2.9469 15.1951 2.62848 15.1951 2.29647C15.1951 1.96445 15.327 1.64604 15.5619 1.41127C15.7967 1.1765 16.1152 1.04461 16.4473 1.04461Z" fill="#0060B7"/>
</svg>
