<svg width="100" height="100" viewBox="0 0 100 100" fill="none" xmlns="http://www.w3.org/2000/svg">
<rect x="0.5" y="0.5" width="99" height="99" rx="29.5" fill="url(#paint0_linear_149_3177)" stroke="url(#paint1_linear_149_3177)"/>
<g filter="url(#filter0_d_149_3177)">
<path d="M40.0011 30.5597C42.2911 32.2282 44.0743 34.5056 45.5969 36.6848L46.4825 37.9747L47.3179 39.2066C47.7358 39.8169 47.9145 40.5597 47.8199 41.2933C47.7253 42.0269 47.3641 42.7 46.805 43.1845L42.8962 46.0868C42.7074 46.2231 42.5744 46.4233 42.5221 46.6503C42.4698 46.8772 42.5016 47.1154 42.6117 47.3206C43.4973 48.929 45.072 51.3246 46.8752 53.1273C48.6803 54.9299 51.1887 56.6084 52.9097 57.5939C53.1255 57.715 53.3795 57.7488 53.6195 57.6885C53.8595 57.6281 54.0672 57.4782 54.2 57.2694L56.7444 53.3977C57.2122 52.7764 57.9023 52.3603 58.6702 52.2363C59.438 52.1123 60.2241 52.2902 60.8637 52.7327L62.192 53.652C64.6743 55.3746 67.341 57.3315 69.3806 59.9414C69.704 60.3576 69.9098 60.853 69.9764 61.3758C70.043 61.8987 69.968 62.4298 69.7592 62.9138C68.0823 66.8256 63.8389 70.1566 59.4251 69.9943L58.8241 69.9603L58.3573 69.9202L57.8404 69.8601L57.2774 69.784L56.6663 69.6839C56.5593 69.6646 56.4525 69.6445 56.3457 69.6238L55.6726 69.4795C55.5548 69.4537 55.4373 69.427 55.32 69.3994L54.5867 69.2112L53.8153 68.9908L53.0099 68.7304C49.3114 67.4766 44.6172 65.0129 39.8008 60.1978C34.9864 55.3846 32.522 50.6916 31.2678 46.9941L31.0074 46.1889L30.787 45.4178L30.5987 44.6847L30.4424 43.9917C30.3973 43.7746 30.3552 43.5569 30.3162 43.3387L30.216 42.7278L30.1359 42.165L30.0778 41.6482L30.0377 41.1815L30.0056 40.5806C29.8433 36.1821 33.2112 31.9097 37.1061 30.2412C37.5748 30.0389 38.0882 29.9618 38.5957 30.0177C39.1033 30.0735 39.5876 30.2603 40.0011 30.5597ZM56.2997 37.7604L56.5321 37.7865C57.9904 38.0436 59.3299 38.7558 60.3586 39.8208C61.3872 40.8859 62.0521 42.2492 62.2581 43.7153C62.3315 44.2224 62.2078 44.7383 61.9123 45.157C61.6168 45.5757 61.172 45.8652 60.6695 45.9661C60.167 46.0669 59.645 45.9714 59.2108 45.6991C58.7766 45.4269 58.4632 44.9986 58.3352 44.5024L58.2891 44.2721C58.2085 43.6974 57.9632 43.1584 57.5828 42.7202C57.2024 42.2819 56.7031 41.9631 56.1454 41.8024L55.8349 41.7323C55.3318 41.6432 54.8818 41.3652 54.5769 40.9554C54.272 40.5455 54.1352 40.0347 54.1946 39.5273C54.2539 39.02 54.505 38.5545 54.8963 38.2261C55.2876 37.8976 55.7896 37.7311 56.2997 37.7604ZM56.3157 31.6714C59.5039 31.6714 62.5615 32.9375 64.8159 35.1913C67.0702 37.4451 68.3367 40.5019 68.3367 43.6892C68.3362 44.1997 68.1406 44.6908 67.7901 45.062C67.4395 45.4332 66.9604 45.6566 66.4506 45.6865C65.9409 45.7165 65.4389 45.5506 65.0473 45.223C64.6557 44.8953 64.4041 44.4305 64.3437 43.9236L64.3297 43.6892C64.3305 41.655 63.5568 39.6968 62.1659 38.2121C60.775 36.7275 58.871 35.8276 56.8406 35.6954L56.3157 35.6773C55.7843 35.6773 55.2747 35.4663 54.899 35.0907C54.5233 34.715 54.3122 34.2056 54.3122 33.6743C54.3122 33.1431 54.5233 32.6337 54.899 32.258C55.2747 31.8824 55.7843 31.6714 56.3157 31.6714Z" fill="#0060B7"/>
</g>
<defs>
<filter id="filter0_d_149_3177" x="26" y="30" width="48" height="48" filterUnits="userSpaceOnUse" color-interpolation-filters="sRGB">
<feFlood flood-opacity="0" result="BackgroundImageFix"/>
<feColorMatrix in="SourceAlpha" type="matrix" values="0 0 0 0 0 0 0 0 0 0 0 0 0 0 0 0 0 0 127 0" result="hardAlpha"/>
<feOffset dy="4"/>
<feGaussianBlur stdDeviation="2"/>
<feComposite in2="hardAlpha" operator="out"/>
<feColorMatrix type="matrix" values="0 0 0 0 0 0 0 0 0 0 0 0 0 0 0 0 0 0 0.25 0"/>
<feBlend mode="normal" in2="BackgroundImageFix" result="effect1_dropShadow_149_3177"/>
<feBlend mode="normal" in="SourceGraphic" in2="effect1_dropShadow_149_3177" result="shape"/>
</filter>
<linearGradient id="paint0_linear_149_3177" x1="50" y1="0" x2="50" y2="100" gradientUnits="userSpaceOnUse">
<stop stop-color="white"/>
<stop offset="1" stop-color="#E6E6E6"/>
</linearGradient>
<linearGradient id="paint1_linear_149_3177" x1="50" y1="0" x2="50" y2="100" gradientUnits="userSpaceOnUse">
<stop stop-color="#F9F9F9"/>
<stop offset="1" stop-color="#F4F4F4"/>
</linearGradient>
</defs>
</svg>
