<svg width="19" height="19" viewBox="0 0 19 19" fill="none" xmlns="http://www.w3.org/2000/svg">
<path d="M17.9995 17.1864V14.4767C18.0105 14.0337 17.858 13.6021 17.5709 13.264C16.7615 12.3106 13.9855 11.7008 12.8851 11.935C12.0274 12.1176 11.4272 12.9788 10.8405 13.5644C8.57465 12.2785 6.69859 10.4062 5.41021 8.14481C5.99691 7.5593 6.85989 6.96037 7.04285 6.10429C7.27715 5.00778 6.66814 2.24949 5.72133 1.43684C5.3883 1.151 4.96247 0.995768 4.52325 1.00009H1.80811C0.773576 1.00106 -0.0871254 1.92895 0.00706482 2.96919C-5.1912e-06 11.935 7.00005 19 16.0265 18.9929C17.0723 19.0873 18.0037 18.2223 17.9995 17.1864Z" fill="white"/>
<path d="M11.4999 4.5C12.2371 4.64382 12.9688 4.96892 13.4999 5.5C14.031 6.03108 14.3561 6.76284 14.4999 7.50001" stroke="white" stroke-linecap="round" stroke-linejoin="round"/>
<path d="M11.9999 1C13.5314 1.17014 14.9096 1.91107 15.9999 3C17.0902 4.08894 17.8278 5.4687 17.9999 7.00001" stroke="white" stroke-linecap="round" stroke-linejoin="round"/>
</svg>
