<svg width="139" height="534" viewBox="0 0 139 534" fill="none" xmlns="http://www.w3.org/2000/svg">
<path fill-rule="evenodd" clip-rule="evenodd" d="M138.595 198.812C138.297 197.141 137.32 195.077 136.424 194.225C135.268 193.126 118.539 192.793 78.774 193.079L25.2337 193.462C23.6529 193.474 22.1498 194.15 21.0925 195.325L18.5987 198.097C16.3139 200.636 13.8198 205.102 13.057 208.021C10.4997 217.808 11.9535 234.151 15.7701 238.526C17.4186 240.417 18.2033 240.383 23.1586 238.215C29.2368 235.554 29.3391 235.289 27.2927 227.459C26.2379 223.424 26.2294 221.188 27.2611 218.594C28.0943 216.498 30.1158 215.116 32.3718 215.101L83.7232 214.763L138.807 214.4L138.972 208.124C139.064 204.673 138.894 200.482 138.595 198.812ZM129.652 49.3734C127.575 33.0193 115.897 14.4659 103.525 7.86484C91.9001 1.66269 82.9506 -0.0946112 67.0263 0.700357C46.3511 1.73242 36.0706 6.17309 25.2707 18.7364C15.736 29.8269 10.5119 44.8392 10.4717 61.2658C10.434 76.4874 15.9428 95.1552 20.4711 95.1552C24.8911 95.1552 33.7834 91.9558 34.388 90.1469C34.725 89.1413 33.6374 86.2473 31.9706 83.7174C25.7074 74.2043 24.3351 56.8935 29.0069 46.3078C32.1142 39.2675 39.976 31.8352 46.6783 29.6023C55.1058 26.7948 70.3951 25.6275 81.0174 26.9817C103.4 29.8325 115.083 41.6315 115.083 61.3802C115.083 71.7622 112.63 78.5431 106.301 85.6504C103.102 89.2445 100.483 93.1873 100.483 94.4132C100.483 98.8525 106.543 110.497 108.854 110.497C111.729 110.497 121.367 98.7214 124.794 91.0213C127.812 84.239 130.918 68.8752 130.726 61.6828C130.654 58.9981 130.171 53.4584 129.652 49.3734ZM101.646 474.963C98.9285 459.208 89.5021 447.085 75.8492 441.787C63.4543 436.978 44.5115 437.848 32.8125 443.764C5.85219 457.399 2.58557 505.982 27.3633 524.795C35.3285 530.844 43.2523 533.085 56.6692 533.085C81.7072 533.085 97.8676 519.827 101.606 496.218C103.081 486.903 103.088 483.324 101.646 474.963ZM100.951 136.298C100.212 130.243 97.9418 120.363 95.904 114.332C94.4793 110.117 93.5121 109.103 90.9219 109.108C87.648 109.113 79.8008 113.77 79.802 115.706C79.802 116.293 80.841 119.911 82.1112 123.746C86.9132 138.244 86.4873 154.563 81.2242 157.786C79.3579 158.93 73.7287 159.814 70.591 159.458C69.8756 159.377 68.6249 153.584 67.811 146.585C64.2877 116.243 55.3626 103.267 37.8043 102.956C21.3726 102.664 11.6567 114.541 11.6774 134.894C11.6859 143.906 13.5485 151.435 17.4332 158.166C19.1438 161.128 20.3251 163.741 20.0599 163.974C19.7947 164.207 17.7982 165.807 15.6241 167.528C13.45 169.249 11.6701 171.792 11.6701 173.176C11.6701 176.181 17.5342 188.599 18.9528 188.599C19.499 188.599 22.8739 187.035 26.4532 185.126C32.7115 181.786 33.9184 181.651 57.9016 181.609C79.5733 181.57 83.4957 181.224 87.8293 178.969C93.135 176.206 96.8432 171.202 99.0027 163.891C100.542 158.682 101.693 142.38 100.951 136.298ZM98.0136 278.207C95.9989 274.181 93.9513 270.905 93.4634 270.928C92.9744 270.952 90.3854 272.518 87.7088 274.408L82.8424 277.845L32.7565 277.852C5.2086 277.856 -18.1955 278.239 -19.254 278.705C-22.5632 280.161 -20.8149 296.168 -17.0251 299.106C-16.2988 299.67 -8.66452 300.14 -0.0617981 300.152C14.3552 300.172 15.5109 300.364 14.7007 302.614C10.6469 313.869 10.9669 331.027 15.4233 341.255C18.8725 349.173 23.346 353.763 32.3526 358.624C38.5197 361.954 40.33 362.237 55.4684 362.237C74.5997 362.237 80.6062 360.652 88.9753 353.397C101.716 342.353 104.726 324.013 96.887 305.183C93.2189 296.373 93.0644 295.479 95 294.238C97.7131 292.497 101.704 287.927 101.689 286.575C101.682 286.001 100.028 282.234 98.0136 278.207ZM100.491 391.282C96.8177 371.213 80.5259 360.262 66.5226 368.451C59.8105 372.377 56.5354 377.527 50.5739 393.531C47.6711 401.323 44.0528 409.237 42.5321 411.119C39.8105 414.486 34.4562 415.639 31.6226 413.47C26.5968 409.622 25.75 394.967 29.7953 381.811C31.2017 377.235 32.3526 372.433 32.3526 371.139C32.3526 368.195 24.3606 362.65 20.9249 363.212C14.9987 364.182 9.64561 396.263 12.8526 411.588C16.5426 429.216 29.7612 439.637 43.1817 435.495C51.5497 432.912 55.7142 427.4 62.2486 410.263C69.0763 392.36 72.0083 388.038 77.3274 388.038C80.2254 388.038 81.5892 389.045 83.464 392.571C86.5603 398.394 86.5238 405.434 83.34 415.979C81.5746 421.827 81.1756 424.923 82.0345 426.096C84.1806 429.025 91.7577 433.059 93.5973 432.25C98.0282 430.3 102.628 402.964 100.491 391.282ZM97.8068 226.534C95.8809 224.326 86.289 224.378 85.0797 226.604C84.559 227.563 84.1161 231.799 84.0955 236.018L84.059 243.689L49.3853 244.386L14.7116 245.083V255.544V266.004L55.4684 266.373C92.7043 266.711 96.3566 266.538 97.7459 264.364C99.8093 261.135 99.8616 228.89 97.8068 226.534ZM86.4788 497.31C82.7183 506.3 72.8356 510.751 56.6023 510.762C35.2251 510.779 24.829 502.925 24.6222 486.606C24.4507 472.994 31.1433 464.982 45.2245 461.936C62.6197 458.173 81.5771 464.002 86.1856 474.531C88.8014 480.506 88.9425 491.422 86.4788 497.31ZM82.8034 331.817C79.2241 338.079 73.4829 339.789 56.0767 339.778C38.8214 339.767 34.9087 338.508 30.0264 331.393C26.8292 326.732 26.6211 316.149 29.5459 306.798L31.6166 300.173H55.0754H78.5343L81.1768 306.101C86.3292 317.663 86.7842 324.854 82.8034 331.817ZM46.1077 159.541C41.6293 159.797 36.8541 159.371 35.4976 158.591C31.4255 156.255 26.0846 142.796 26.733 136.51C27.8146 126.028 35.8832 121.417 44.357 126.439C49.2515 129.342 53.6532 142.378 54.1179 155.357C54.2481 158.983 54.0547 159.083 46.1077 159.541Z" fill="url(#paint0_linear_0_316)"/>
<defs>
<linearGradient id="paint0_linear_0_316" x1="139.247" y1="266.803" x2="-21.0029" y2="266.803" gradientUnits="userSpaceOnUse">
<stop stop-color="#2A9EDA"/>
<stop offset="1" stop-color="#064A94"/>
</linearGradient>
</defs>
</svg>
