<svg width="170" height="229" viewBox="0 0 170 229" fill="none" xmlns="http://www.w3.org/2000/svg">
<g filter="url(#filter0_dddd_149_3207)">
<rect x="35" y="7" width="100" height="100" rx="30" fill="url(#paint0_linear_149_3207)"/>
<rect x="35.5" y="7.5" width="99" height="99" rx="29.5" stroke="url(#paint1_linear_149_3207)"/>
</g>
<g filter="url(#filter1_d_149_3207)">
<path d="M111.229 72C110.198 72 109.167 71.9034 108.136 71.7103C107.105 71.5448 106.132 71.2828 105.219 70.9241C104.305 70.5379 103.485 70.069 102.758 69.5172C102.337 69.1862 102.044 68.7862 101.88 68.3172C101.716 67.8483 101.657 67.3931 101.704 66.9517C101.774 66.4828 101.926 66.0828 102.161 65.7517C102.419 65.3931 102.735 65.1724 103.11 65.0897C103.485 65.0069 103.895 65.131 104.34 65.4621C105.371 66.1793 106.461 66.7034 107.609 67.0345C108.757 67.3655 109.964 67.531 111.229 67.531C113.08 67.531 114.427 67.1724 115.271 66.4552C116.115 65.7103 116.536 64.7586 116.536 63.6C116.536 62.6345 116.232 61.8759 115.622 61.3241C115.037 60.7724 114.017 60.3172 112.565 59.9586L108.698 59.0069C106.472 58.4552 104.809 57.531 103.707 56.2345C102.629 54.9103 102.09 53.1724 102.09 51.0207C102.09 49.669 102.325 48.4414 102.793 47.3379C103.262 46.2345 103.918 45.2828 104.762 44.4828C105.629 43.6828 106.648 43.0759 107.82 42.6621C109.015 42.2207 110.327 42 111.756 42C113.162 42 114.498 42.2069 115.763 42.6207C117.028 43.0345 118.165 43.6414 119.172 44.4414C119.547 44.7448 119.793 45.1172 119.91 45.5586C120.051 46 120.086 46.4414 120.016 46.8828C119.946 47.2966 119.782 47.6552 119.524 47.9586C119.266 48.2621 118.938 48.4414 118.54 48.4966C118.165 48.5517 117.731 48.4138 117.239 48.0828C116.372 47.5034 115.494 47.0897 114.603 46.8414C113.713 46.5931 112.752 46.469 111.721 46.469C110.643 46.469 109.718 46.6483 108.944 47.0069C108.171 47.3655 107.574 47.8759 107.152 48.5379C106.753 49.1724 106.554 49.931 106.554 50.8138C106.554 51.8069 106.835 52.6069 107.398 53.2138C107.96 53.7931 108.921 54.2483 110.28 54.5793L114.111 55.531C116.431 56.1103 118.153 57.0207 119.278 58.2621C120.426 59.5034 121 61.1586 121 63.2276C121 64.5517 120.766 65.7517 120.297 66.8276C119.852 67.9034 119.196 68.8276 118.329 69.6C117.485 70.3724 116.466 70.9655 115.271 71.3793C114.076 71.7931 112.729 72 111.229 72Z" fill="#0362B8"/>
<path d="M74.2825 71.9185C73.6264 71.9185 73.1226 71.6978 72.7711 71.2564C72.4196 70.815 72.2439 70.2081 72.2439 69.4357V44.5667C72.2439 43.7667 72.4314 43.1598 72.8063 42.7461C73.1812 42.3047 73.6967 42.084 74.3528 42.084C74.9386 42.084 75.3955 42.2219 75.7235 42.4978C76.075 42.7461 76.3914 43.1874 76.6725 43.8219L85.3541 62.7323H84.2293L92.9109 43.8219C93.1921 43.1874 93.4967 42.7461 93.8247 42.4978C94.1528 42.2219 94.6097 42.084 95.1955 42.084C95.8516 42.084 96.3554 42.3047 96.7069 42.7461C97.0583 43.1598 97.2341 43.7667 97.2341 44.5667V69.4357C97.2341 70.2081 97.0583 70.815 96.7069 71.2564C96.3788 71.6978 95.875 71.9185 95.1955 71.9185C94.5394 71.9185 94.0356 71.6978 93.6841 71.2564C93.3327 70.815 93.1569 70.2081 93.1569 69.4357V50.2771H93.9302L86.5491 66.1254C86.3148 66.5943 86.0688 66.9392 85.811 67.1598C85.5532 67.3805 85.2018 67.4909 84.7566 67.4909C84.3114 67.4909 83.9482 67.3805 83.667 67.1598C83.3858 66.9116 83.1398 66.5667 82.9289 66.1254L75.4775 50.2357H76.3211V69.4357C76.3211 70.2081 76.1453 70.815 75.7938 71.2564C75.4658 71.6978 74.962 71.9185 74.2825 71.9185Z" fill="#0362B8"/>
<path d="M58.5407 72C57.5097 72 56.4787 71.9034 55.4477 71.7103C54.4167 71.5448 53.4443 71.2828 52.5304 70.9241C51.6166 70.5379 50.7964 70.069 50.0701 69.5172C49.6483 69.1862 49.3554 68.7862 49.1914 68.3172C49.0273 67.8483 48.9688 67.3931 49.0156 66.9517C49.0859 66.4828 49.2382 66.0828 49.4725 65.7517C49.7303 65.3931 50.0466 65.1724 50.4215 65.0897C50.7964 65.0069 51.2065 65.131 51.6517 65.4621C52.6827 66.1793 53.7723 66.7034 54.9205 67.0345C56.0686 67.3655 57.2754 67.531 58.5407 67.531C60.3918 67.531 61.7392 67.1724 62.5827 66.4552C63.4263 65.7103 63.848 64.7586 63.848 63.6C63.848 62.6345 63.5434 61.8759 62.9342 61.3241C62.3484 60.7724 61.3291 60.3172 59.8763 59.9586L56.0101 59.0069C53.784 58.4552 52.1204 57.531 51.0191 56.2345C49.9412 54.9103 49.4022 53.1724 49.4022 51.0207C49.4022 49.669 49.6366 48.4414 50.1052 47.3379C50.5738 46.2345 51.2299 45.2828 52.0735 44.4828C52.9405 43.6828 53.9598 43.0759 55.1314 42.6621C56.3264 42.2207 57.6386 42 59.0679 42C60.4738 42 61.8095 42.2069 63.0748 42.6207C64.3401 43.0345 65.4766 43.6414 66.4841 44.4414C66.8591 44.7448 67.1051 45.1172 67.2222 45.5586C67.3628 46 67.398 46.4414 67.3277 46.8828C67.2574 47.2966 67.0934 47.6552 66.8356 47.9586C66.5779 48.2621 66.2498 48.4414 65.8515 48.4966C65.4766 48.5517 65.0431 48.4138 64.551 48.0828C63.684 47.5034 62.8053 47.0897 61.9149 46.8414C61.0245 46.5931 60.0638 46.469 59.0328 46.469C57.9549 46.469 57.0293 46.6483 56.2561 47.0069C55.4828 47.3655 54.8853 47.8759 54.4636 48.5379C54.0652 49.1724 53.866 49.931 53.866 50.8138C53.866 51.8069 54.1472 52.6069 54.7096 53.2138C55.272 53.7931 56.2327 54.2483 57.5917 54.5793L61.4228 55.531C63.7426 56.1103 65.4649 57.0207 66.5896 58.2621C67.7378 59.5034 68.3118 61.1586 68.3118 63.2276C68.3118 64.5517 68.0775 65.7517 67.6089 66.8276C67.1637 67.9034 66.5076 68.8276 65.6406 69.6C64.797 70.3724 63.7778 70.9655 62.5827 71.3793C61.3877 71.7931 60.0404 72 58.5407 72Z" fill="#0362B8"/>
</g>
<defs>
<filter id="filter0_dddd_149_3207" x="0" y="0" width="170" height="229" filterUnits="userSpaceOnUse" color-interpolation-filters="sRGB">
<feFlood flood-opacity="0" result="BackgroundImageFix"/>
<feColorMatrix in="SourceAlpha" type="matrix" values="0 0 0 0 0 0 0 0 0 0 0 0 0 0 0 0 0 0 127 0" result="hardAlpha"/>
<feOffset dy="5"/>
<feGaussianBlur stdDeviation="6"/>
<feColorMatrix type="matrix" values="0 0 0 0 0 0 0 0 0 0 0 0 0 0 0 0 0 0 0.05 0"/>
<feBlend mode="normal" in2="BackgroundImageFix" result="effect1_dropShadow_149_3207"/>
<feColorMatrix in="SourceAlpha" type="matrix" values="0 0 0 0 0 0 0 0 0 0 0 0 0 0 0 0 0 0 127 0" result="hardAlpha"/>
<feOffset dy="22"/>
<feGaussianBlur stdDeviation="11"/>
<feColorMatrix type="matrix" values="0 0 0 0 0 0 0 0 0 0 0 0 0 0 0 0 0 0 0.04 0"/>
<feBlend mode="normal" in2="effect1_dropShadow_149_3207" result="effect2_dropShadow_149_3207"/>
<feColorMatrix in="SourceAlpha" type="matrix" values="0 0 0 0 0 0 0 0 0 0 0 0 0 0 0 0 0 0 127 0" result="hardAlpha"/>
<feOffset dy="49"/>
<feGaussianBlur stdDeviation="15"/>
<feColorMatrix type="matrix" values="0 0 0 0 0 0 0 0 0 0 0 0 0 0 0 0 0 0 0.03 0"/>
<feBlend mode="normal" in2="effect2_dropShadow_149_3207" result="effect3_dropShadow_149_3207"/>
<feColorMatrix in="SourceAlpha" type="matrix" values="0 0 0 0 0 0 0 0 0 0 0 0 0 0 0 0 0 0 127 0" result="hardAlpha"/>
<feOffset dy="87"/>
<feGaussianBlur stdDeviation="17.5"/>
<feColorMatrix type="matrix" values="0 0 0 0 0 0 0 0 0 0 0 0 0 0 0 0 0 0 0.01 0"/>
<feBlend mode="normal" in2="effect3_dropShadow_149_3207" result="effect4_dropShadow_149_3207"/>
<feBlend mode="normal" in="SourceGraphic" in2="effect4_dropShadow_149_3207" result="shape"/>
</filter>
<filter id="filter1_d_149_3207" x="45" y="42" width="80" height="38" filterUnits="userSpaceOnUse" color-interpolation-filters="sRGB">
<feFlood flood-opacity="0" result="BackgroundImageFix"/>
<feColorMatrix in="SourceAlpha" type="matrix" values="0 0 0 0 0 0 0 0 0 0 0 0 0 0 0 0 0 0 127 0" result="hardAlpha"/>
<feOffset dy="4"/>
<feGaussianBlur stdDeviation="2"/>
<feComposite in2="hardAlpha" operator="out"/>
<feColorMatrix type="matrix" values="0 0 0 0 0 0 0 0 0 0 0 0 0 0 0 0 0 0 0.25 0"/>
<feBlend mode="normal" in2="BackgroundImageFix" result="effect1_dropShadow_149_3207"/>
<feBlend mode="normal" in="SourceGraphic" in2="effect1_dropShadow_149_3207" result="shape"/>
</filter>
<linearGradient id="paint0_linear_149_3207" x1="85" y1="7" x2="85" y2="107" gradientUnits="userSpaceOnUse">
<stop stop-color="white"/>
<stop offset="1" stop-color="#E6E6E6"/>
</linearGradient>
<linearGradient id="paint1_linear_149_3207" x1="85" y1="7" x2="85" y2="107" gradientUnits="userSpaceOnUse">
<stop stop-color="#F9F9F9"/>
<stop offset="1" stop-color="#F4F4F4"/>
</linearGradient>
</defs>
</svg>
