<svg width="31" height="19" viewBox="0 0 31 19" fill="none" xmlns="http://www.w3.org/2000/svg">
<path fill-rule="evenodd" clip-rule="evenodd" d="M13.1834 0.575996C11.8654 0.62286 11.522 0.666163 11.1626 0.830523C10.6722 1.05483 10.2003 1.46968 10.2003 1.67638C10.2003 1.75269 10.3194 1.84102 10.4649 1.87278C11.6275 2.12663 11.9456 2.69679 12.0775 4.76322C12.162 6.08771 11.9887 7.95206 11.7234 8.57043C11.5089 9.07053 11.2549 9.19832 10.8084 9.0305C10.4051 8.87884 9.76784 8.21419 9.24531 7.39999C8.71528 6.57435 7.21372 3.67592 6.73623 2.55697C6.5099 2.02646 6.3161 1.72834 6.08101 1.54907L5.74729 1.29444L3.09916 1.3236C0.116918 1.35651 0 1.38095 0 1.97353C0 2.49663 1.51763 5.72089 2.96184 8.26605C4.35985 10.7297 6.73036 13.9822 7.84672 14.9684C9.23396 16.1939 11.0507 17.2938 12.2692 17.6459C12.5868 17.7376 12.9765 17.8563 13.1353 17.9095C13.2941 17.9627 14.2034 18.0272 15.1561 18.0528C17.6931 18.121 17.9906 17.9693 18.0606 16.5722C18.1138 15.5093 18.3433 14.7691 18.7439 14.3685C19.3251 13.7873 19.796 13.9624 20.9178 15.1774C22.5339 16.9277 23.1657 17.5022 23.8018 17.7999L24.4262 18.0921L26.9076 18.0848C29.7519 18.0763 30.0522 18.0463 30.4806 17.7272C31.1287 17.2445 30.8245 16.3228 29.4935 14.7359C29.0614 14.2207 28.2353 13.3502 27.6576 12.8013C25.7647 11.0028 25.5719 10.6534 26.0083 9.81226C26.1414 9.55581 26.9238 8.45284 27.7469 7.36131C30.0198 4.34722 30.7299 3.12645 30.7396 2.21565C30.7444 1.7702 30.7111 1.67282 30.4995 1.51337C30.2683 1.33919 30.0689 1.3286 27.1315 1.33486L24.0092 1.3414L23.7624 1.60411C23.6268 1.74855 23.414 2.10498 23.2896 2.39607C22.1162 5.1413 20.7867 7.3666 19.6485 8.49027C19.0034 9.12721 18.6905 9.186 18.3542 8.73354C18.0393 8.30984 17.998 7.76075 18.0546 4.75369L18.109 1.86681L17.8835 1.43378C17.5673 0.826481 17.1736 0.662795 15.837 0.583118C15.2508 0.548186 14.0567 0.545011 13.1834 0.575996Z" fill="#0060B7"/>
</svg>
