<svg width="24" height="25" viewBox="0 0 24 25" fill="none" xmlns="http://www.w3.org/2000/svg">
<path fill-rule="evenodd" clip-rule="evenodd" d="M11.0264 0.363571C8.00769 0.60689 4.95438 2.14532 3.01706 4.39924C1.10914 6.61886 0.0585633 9.40004 0.0585633 12.2313C0.0585633 14.1252 0.569109 16.2063 1.41512 17.7606L1.64644 18.1857L1.25345 19.6083C1.03723 20.3908 0.809677 21.2109 0.747727 21.4308C0.292624 23.0453 -0.0284561 24.2893 0.00199659 24.3197C0.0218431 24.3394 0.322916 24.2796 0.670993 24.1867C1.01915 24.0938 1.79212 23.8915 2.38872 23.7373C2.98532 23.5831 3.96157 23.3293 4.55817 23.1734C6.44415 22.6805 6.28474 22.7013 6.67604 22.8958C7.89247 23.5004 9.17469 23.8808 10.6212 24.0662C11.8264 24.2207 12.2411 24.2204 13.4402 24.0643C14.9871 23.8628 15.89 23.5928 17.2937 22.9124C22.7039 20.2894 25.3081 14.0295 23.3525 8.34832C22.7389 6.56617 21.4548 4.63273 20.0751 3.41429C17.5359 1.17165 14.3455 0.0960237 11.0264 0.363571ZM13.8386 2.5632C15.4301 2.88959 16.6696 3.42189 17.8963 4.30601C18.6095 4.81999 19.7542 6.02284 20.2608 6.79045C21.322 8.39885 21.8076 9.90946 21.89 11.8583C22.0135 14.7769 20.887 17.4789 18.7139 19.4765C16.1398 21.843 12.4975 22.6722 9.13813 21.6569C8.4288 21.4424 7.4732 21.0229 6.94273 20.693L6.63563 20.5019L6.0187 20.6565C4.90762 20.9351 3.23448 21.3797 3.09138 21.4343C2.88014 21.515 2.90601 21.3668 3.42323 19.5323L3.89087 17.8737L3.60964 17.4133C0.394267 12.1499 2.68031 5.35501 8.43523 3.0699C9.18867 2.77077 10.4367 2.47532 11.2272 2.40903C11.8344 2.3581 13.2441 2.44134 13.8386 2.5632ZM7.53876 6.73344C7.43246 6.75487 7.15589 6.96109 6.92416 7.19177C5.70397 8.40597 5.61004 10.1141 6.66431 11.9155C7.45102 13.2596 8.74996 14.7634 9.96454 15.7358C11.1863 16.714 12.2673 17.278 13.8305 17.7524C14.4344 17.9357 14.6508 17.9631 15.3151 17.9398C15.9989 17.9158 16.1566 17.8813 16.6213 17.6534C17.2569 17.3417 17.8509 16.7444 17.9646 16.3028C18.1204 15.6974 18.1509 15.2005 18.0412 15.0571C17.9358 14.9195 16.2633 14.0688 15.5368 13.7833C15.0515 13.5926 14.9045 13.6367 14.6112 14.0611C14.4835 14.2457 14.2017 14.5848 13.9849 14.8145C13.6132 15.2086 13.5764 15.2281 13.3338 15.1589C12.9944 15.062 11.999 14.5549 11.5642 14.2574C10.7549 13.7036 9.77636 12.6419 9.24773 11.7442C9.01576 11.3503 9.01536 11.3515 9.62208 10.5537C9.896 10.1936 10.022 9.95216 10.022 9.78744C10.022 9.49279 9.03987 7.10246 8.84012 6.91103C8.69042 6.76751 7.90275 6.66004 7.53876 6.73344Z" fill="#0060B7"/>
</svg>
