<svg width="14" height="20" viewBox="0 0 14 20" fill="none" xmlns="http://www.w3.org/2000/svg">
<path fill-rule="evenodd" clip-rule="evenodd" d="M3.37011 0.945367C0.0591589 2.81326 -0.989283 6.78047 1.02154 9.83202C2.162 11.5632 4.62207 12.9873 6.47214 12.9873C7.43722 12.9873 7.57849 13.2107 7.33979 14.3648C6.69568 17.4829 6.37687 20 6.62694 20C6.77308 20 8.0927 18.2533 9.559 16.1179C14.1284 9.46435 14.9907 6.18088 12.9728 3.11882C10.9544 0.0547475 6.66753 -0.915516 3.37011 0.945367ZM8.85319 4.7578C10.4943 6.27706 9.30623 8.97997 6.99717 8.97997C5.7057 8.97997 4.29081 7.67059 4.29081 6.47542C4.29081 5.28025 5.7057 3.97087 6.99717 3.97087C7.54981 3.97087 8.38499 4.32501 8.85319 4.7578Z" fill="#1F85C5"/>
</svg>
