<svg width="100" height="100" viewBox="0 0 100 100" fill="none" xmlns="http://www.w3.org/2000/svg">
<rect x="0.5" y="0.5" width="99" height="99" rx="29.5" fill="url(#paint0_linear_149_3171)" stroke="url(#paint1_linear_149_3171)"/>
<g filter="url(#filter0_d_149_3171)">
<path d="M60 52H40C34.4771 52 30 57.9697 30 65.3333V72H50H70V65.3333C70 57.9697 65.5228 52 60 52Z" fill="#0362B8"/>
<path d="M50 47C55.5228 47 60 42.5229 60 37C60 31.4771 55.5228 27 50 27C44.4771 27 40 31.4771 40 37C40 42.5229 44.4771 47 50 47Z" fill="#0362B8"/>
</g>
<defs>
<filter id="filter0_d_149_3171" x="26" y="27" width="48" height="53" filterUnits="userSpaceOnUse" color-interpolation-filters="sRGB">
<feFlood flood-opacity="0" result="BackgroundImageFix"/>
<feColorMatrix in="SourceAlpha" type="matrix" values="0 0 0 0 0 0 0 0 0 0 0 0 0 0 0 0 0 0 127 0" result="hardAlpha"/>
<feOffset dy="4"/>
<feGaussianBlur stdDeviation="2"/>
<feComposite in2="hardAlpha" operator="out"/>
<feColorMatrix type="matrix" values="0 0 0 0 0 0 0 0 0 0 0 0 0 0 0 0 0 0 0.25 0"/>
<feBlend mode="normal" in2="BackgroundImageFix" result="effect1_dropShadow_149_3171"/>
<feBlend mode="normal" in="SourceGraphic" in2="effect1_dropShadow_149_3171" result="shape"/>
</filter>
<linearGradient id="paint0_linear_149_3171" x1="50" y1="0" x2="50" y2="100" gradientUnits="userSpaceOnUse">
<stop stop-color="white"/>
<stop offset="1" stop-color="#E6E6E6"/>
</linearGradient>
<linearGradient id="paint1_linear_149_3171" x1="50" y1="0" x2="50" y2="100" gradientUnits="userSpaceOnUse">
<stop stop-color="#F9F9F9"/>
<stop offset="1" stop-color="#F4F4F4"/>
</linearGradient>
</defs>
</svg>
