<svg width="100" height="100" viewBox="0 0 100 100" fill="none" xmlns="http://www.w3.org/2000/svg">
<g filter="url(#filter0_i_149_3212)">
<rect width="100" height="100" rx="30" fill="url(#paint0_linear_149_3212)"/>
</g>
<rect x="0.5" y="0.5" width="99" height="99" rx="29.5" stroke="url(#paint1_linear_149_3212)"/>
<path d="M76.2289 65C75.1979 65 74.1669 64.9034 73.1359 64.7103C72.1049 64.5448 71.1325 64.2828 70.2186 63.9241C69.3048 63.5379 68.4847 63.069 67.7583 62.5172C67.3365 62.1862 67.0436 61.7862 66.8796 61.3172C66.7156 60.8483 66.657 60.3931 66.7039 59.9517C66.7741 59.4828 66.9265 59.0828 67.1608 58.7517C67.4185 58.3931 67.7349 58.1724 68.1098 58.0897C68.4847 58.0069 68.8947 58.131 69.3399 58.4621C70.371 59.1793 71.4605 59.7034 72.6087 60.0345C73.7569 60.3655 74.9636 60.531 76.2289 60.531C78.0801 60.531 79.4274 60.1724 80.271 59.4552C81.1145 58.7103 81.5363 57.7586 81.5363 56.6C81.5363 55.6345 81.2317 54.8759 80.6224 54.3241C80.0366 53.7724 79.0173 53.3172 77.5646 52.9586L73.6983 52.0069C71.4723 51.4552 69.8086 50.531 68.7073 49.2345C67.6294 47.9103 67.0905 46.1724 67.0905 44.0207C67.0905 42.669 67.3248 41.4414 67.7934 40.3379C68.2621 39.2345 68.9182 38.2828 69.7617 37.4828C70.6287 36.6828 71.648 36.0759 72.8196 35.6621C74.0146 35.2207 75.3268 35 76.7562 35C78.1621 35 79.4977 35.2069 80.763 35.6207C82.0284 36.0345 83.1648 36.6414 84.1724 37.4414C84.5473 37.7448 84.7933 38.1172 84.9105 38.5586C85.0511 39 85.0862 39.4414 85.0159 39.8828C84.9456 40.2966 84.7816 40.6552 84.5239 40.9586C84.2661 41.2621 83.9381 41.4414 83.5397 41.4966C83.1648 41.5517 82.7313 41.4138 82.2392 41.0828C81.3723 40.5034 80.4936 40.0897 79.6031 39.8414C78.7127 39.5931 77.752 39.469 76.721 39.469C75.6431 39.469 74.7176 39.6483 73.9443 40.0069C73.1711 40.3655 72.5736 40.8759 72.1518 41.5379C71.7534 42.1724 71.5543 42.931 71.5543 43.8138C71.5543 44.8069 71.8355 45.6069 72.3978 46.2138C72.9602 46.7931 73.9209 47.2483 75.2799 47.5793L79.1111 48.531C81.4308 49.1103 83.1531 50.0207 84.2778 51.2621C85.426 52.5034 86.0001 54.1586 86.0001 56.2276C86.0001 57.5517 85.7657 58.7517 85.2971 59.8276C84.8519 60.9034 84.1958 61.8276 83.3288 62.6C82.4853 63.3724 81.466 63.9655 80.271 64.3793C79.0759 64.7931 77.7286 65 76.2289 65Z" fill="#0362B8"/>
<path d="M39.2825 64.9185C38.6264 64.9185 38.1226 64.6978 37.7711 64.2564C37.4196 63.815 37.2439 63.2081 37.2439 62.4357V37.5667C37.2439 36.7667 37.4314 36.1598 37.8063 35.7461C38.1812 35.3047 38.6967 35.084 39.3528 35.084C39.9386 35.084 40.3955 35.2219 40.7235 35.4978C41.075 35.7461 41.3914 36.1874 41.6725 36.8219L50.3541 55.7323H49.2293L57.9109 36.8219C58.1921 36.1874 58.4967 35.7461 58.8247 35.4978C59.1528 35.2219 59.6097 35.084 60.1955 35.084C60.8516 35.084 61.3554 35.3047 61.7069 35.7461C62.0583 36.1598 62.2341 36.7667 62.2341 37.5667V62.4357C62.2341 63.2081 62.0583 63.815 61.7069 64.2564C61.3788 64.6978 60.875 64.9185 60.1955 64.9185C59.5394 64.9185 59.0356 64.6978 58.6841 64.2564C58.3327 63.815 58.1569 63.2081 58.1569 62.4357V43.2771H58.9302L51.5491 59.1254C51.3148 59.5943 51.0688 59.9392 50.811 60.1598C50.5532 60.3805 50.2018 60.4909 49.7566 60.4909C49.3114 60.4909 48.9482 60.3805 48.667 60.1598C48.3858 59.9116 48.1398 59.5667 47.9289 59.1254L40.4775 43.2357H41.3211V62.4357C41.3211 63.2081 41.1453 63.815 40.7938 64.2564C40.4658 64.6978 39.962 64.9185 39.2825 64.9185Z" fill="#0362B8"/>
<path d="M23.5407 65C22.5097 65 21.4787 64.9034 20.4477 64.7103C19.4167 64.5448 18.4443 64.2828 17.5304 63.9241C16.6166 63.5379 15.7964 63.069 15.0701 62.5172C14.6483 62.1862 14.3554 61.7862 14.1914 61.3172C14.0273 60.8483 13.9688 60.3931 14.0156 59.9517C14.0859 59.4828 14.2382 59.0828 14.4725 58.7517C14.7303 58.3931 15.0466 58.1724 15.4215 58.0897C15.7964 58.0069 16.2065 58.131 16.6517 58.4621C17.6827 59.1793 18.7723 59.7034 19.9205 60.0345C21.0686 60.3655 22.2754 60.531 23.5407 60.531C25.3918 60.531 26.7392 60.1724 27.5827 59.4552C28.4263 58.7103 28.848 57.7586 28.848 56.6C28.848 55.6345 28.5434 54.8759 27.9342 54.3241C27.3484 53.7724 26.3291 53.3172 24.8763 52.9586L21.0101 52.0069C18.784 51.4552 17.1204 50.531 16.0191 49.2345C14.9412 47.9103 14.4022 46.1724 14.4022 44.0207C14.4022 42.669 14.6366 41.4414 15.1052 40.3379C15.5738 39.2345 16.2299 38.2828 17.0735 37.4828C17.9405 36.6828 18.9598 36.0759 20.1314 35.6621C21.3264 35.2207 22.6386 35 24.0679 35C25.4738 35 26.8095 35.2069 28.0748 35.6207C29.3401 36.0345 30.4766 36.6414 31.4841 37.4414C31.8591 37.7448 32.1051 38.1172 32.2222 38.5586C32.3628 39 32.398 39.4414 32.3277 39.8828C32.2574 40.2966 32.0934 40.6552 31.8356 40.9586C31.5779 41.2621 31.2498 41.4414 30.8515 41.4966C30.4766 41.5517 30.0431 41.4138 29.551 41.0828C28.684 40.5034 27.8053 40.0897 26.9149 39.8414C26.0245 39.5931 25.0638 39.469 24.0328 39.469C22.9549 39.469 22.0293 39.6483 21.2561 40.0069C20.4828 40.3655 19.8853 40.8759 19.4636 41.5379C19.0652 42.1724 18.866 42.931 18.866 43.8138C18.866 44.8069 19.1472 45.6069 19.7096 46.2138C20.272 46.7931 21.2327 47.2483 22.5917 47.5793L26.4228 48.531C28.7426 49.1103 30.4649 50.0207 31.5896 51.2621C32.7378 52.5034 33.3118 54.1586 33.3118 56.2276C33.3118 57.5517 33.0775 58.7517 32.6089 59.8276C32.1637 60.9034 31.5076 61.8276 30.6406 62.6C29.797 63.3724 28.7778 63.9655 27.5827 64.3793C26.3877 64.7931 25.0404 65 23.5407 65Z" fill="#0362B8"/>
<defs>
<filter id="filter0_i_149_3212" x="0" y="0" width="100" height="104" filterUnits="userSpaceOnUse" color-interpolation-filters="sRGB">
<feFlood flood-opacity="0" result="BackgroundImageFix"/>
<feBlend mode="normal" in="SourceGraphic" in2="BackgroundImageFix" result="shape"/>
<feColorMatrix in="SourceAlpha" type="matrix" values="0 0 0 0 0 0 0 0 0 0 0 0 0 0 0 0 0 0 127 0" result="hardAlpha"/>
<feOffset dy="4"/>
<feGaussianBlur stdDeviation="2"/>
<feComposite in2="hardAlpha" operator="arithmetic" k2="-1" k3="1"/>
<feColorMatrix type="matrix" values="0 0 0 0 0 0 0 0 0 0 0 0 0 0 0 0 0 0 0.25 0"/>
<feBlend mode="normal" in2="shape" result="effect1_innerShadow_149_3212"/>
</filter>
<linearGradient id="paint0_linear_149_3212" x1="50" y1="0" x2="50" y2="100" gradientUnits="userSpaceOnUse">
<stop stop-color="white"/>
<stop offset="1" stop-color="#E6E6E6"/>
</linearGradient>
<linearGradient id="paint1_linear_149_3212" x1="50" y1="0" x2="50" y2="100" gradientUnits="userSpaceOnUse">
<stop stop-color="#F9F9F9"/>
<stop offset="1" stop-color="#F4F4F4"/>
</linearGradient>
</defs>
</svg>
